<?xml version="1.0" encoding="utf-8"?>
<!-- Generator: Adobe Illustrator 19.0.0, SVG Export Plug-In . SVG Version: 6.00 Build 0)  -->
<svg version="1.1" id="Layer_1" xmlns="http://www.w3.org/2000/svg" xmlns:xlink="http://www.w3.org/1999/xlink" x="0px" y="0px"
	 viewBox="-184 400.9 226.3 40" style="enable-background:new -184 400.9 226.3 40;" xml:space="preserve">
<style type="text/css">
	.st0{clip-path:url(#SVGID_2_);fill:#386CC0;}
	.st1{clip-path:url(#SVGID_4_);fill:#386CC0;}
	.st2{clip-path:url(#SVGID_6_);fill:#386DC0;}
	.st3{clip-path:url(#SVGID_8_);fill:#396EC1;}
	.st4{clip-path:url(#SVGID_10_);fill:#396FC1;}
	.st5{clip-path:url(#SVGID_12_);fill:#3970C2;}
	.st6{clip-path:url(#SVGID_14_);fill:#3971C2;}
	.st7{clip-path:url(#SVGID_16_);fill:#3A72C3;}
	.st8{clip-path:url(#SVGID_18_);fill:#3A73C3;}
	.st9{clip-path:url(#SVGID_20_);fill:#3A74C4;}
	.st10{clip-path:url(#SVGID_22_);fill:#3B75C4;}
	.st11{clip-path:url(#SVGID_24_);fill:#3B76C5;}
	.st12{clip-path:url(#SVGID_26_);fill:#3B77C5;}
	.st13{clip-path:url(#SVGID_28_);fill:#3B78C5;}
	.st14{clip-path:url(#SVGID_30_);fill:#3C79C6;}
	.st15{clip-path:url(#SVGID_32_);fill:#3C7AC6;}
	.st16{clip-path:url(#SVGID_34_);fill:#3C7BC7;}
	.st17{clip-path:url(#SVGID_36_);fill:#3D7CC7;}
	.st18{clip-path:url(#SVGID_38_);fill:#3D7DC8;}
	.st19{clip-path:url(#SVGID_40_);fill:#3D7EC8;}
	.st20{clip-path:url(#SVGID_42_);fill:#3E7FC9;}
	.st21{clip-path:url(#SVGID_44_);fill:#3E80C9;}
	.st22{clip-path:url(#SVGID_46_);fill:#3E81CA;}
	.st23{clip-path:url(#SVGID_48_);fill:#3E82CA;}
	.st24{clip-path:url(#SVGID_50_);fill:#3F83CB;}
	.st25{clip-path:url(#SVGID_52_);fill:#3F84CB;}
	.st26{clip-path:url(#SVGID_54_);fill:#3F86CB;}
	.st27{clip-path:url(#SVGID_56_);fill:#4087CC;}
	.st28{clip-path:url(#SVGID_58_);fill:#4088CC;}
	.st29{clip-path:url(#SVGID_60_);fill:#4089CD;}
	.st30{clip-path:url(#SVGID_62_);fill:#408ACD;}
	.st31{clip-path:url(#SVGID_64_);fill:#418BCE;}
	.st32{clip-path:url(#SVGID_66_);fill:#418CCE;}
	.st33{clip-path:url(#SVGID_68_);fill:#418DCF;}
	.st34{clip-path:url(#SVGID_70_);fill:#428ECF;}
	.st35{clip-path:url(#SVGID_72_);fill:#428FD0;}
	.st36{clip-path:url(#SVGID_74_);fill:#4290D0;}
	.st37{clip-path:url(#SVGID_76_);fill:#4291D0;}
	.st38{clip-path:url(#SVGID_78_);fill:#4392D1;}
	.st39{clip-path:url(#SVGID_80_);fill:#4393D1;}
	.st40{clip-path:url(#SVGID_82_);fill:#4394D2;}
	.st41{clip-path:url(#SVGID_84_);fill:#4495D2;}
	.st42{clip-path:url(#SVGID_86_);fill:#4496D3;}
	.st43{clip-path:url(#SVGID_88_);fill:#4497D3;}
	.st44{clip-path:url(#SVGID_90_);fill:#4598D4;}
	.st45{clip-path:url(#SVGID_92_);fill:#4599D4;}
	.st46{clip-path:url(#SVGID_94_);fill:#459AD5;}
	.st47{clip-path:url(#SVGID_96_);fill:#459BD5;}
	.st48{clip-path:url(#SVGID_98_);fill:#469CD6;}
	.st49{clip-path:url(#SVGID_100_);fill:#469DD6;}
	.st50{clip-path:url(#SVGID_102_);fill:#469DD6;}
	.st51{clip-path:url(#SVGID_104_);fill:#479FD7;}
	.st52{fill:#479FD7;}
	.st53{fill:#FFFFFF;}
	.st54{fill:#74797F;}
</style>
<g id="XMLID_268_">
	<g id="XMLID_300_">
		<g id="XMLID_336_">
			<g id="XMLID_337_">
				<g>
					<g>
						<g>
							<g>
								<defs>
									<circle id="SVGID_1_" cx="-144.7" cy="420.9" r="20"/>
								</defs>
								<clipPath id="SVGID_2_">
									<use xlink:href="#SVGID_1_"  style="overflow:visible;"/>
								</clipPath>
								<rect id="XMLID_604_" x="-167.1" y="398.5" class="st0" width="44.8" height="44.8"/>
							</g>
						</g>
					</g>
				</g>
				<g>
					<g>
						<g>
							<g>
								<defs>
									<circle id="SVGID_3_" cx="-144.7" cy="420.9" r="20"/>
								</defs>
								<clipPath id="SVGID_4_">
									<use xlink:href="#SVGID_3_"  style="overflow:visible;"/>
								</clipPath>
								<path id="XMLID_603_" class="st1" d="M-140.3,398.3h1.3v-0.7c0.4,0.4,0.9,0.8,1.3,1.2c0.8,0.8,1.6,1.7,2.3,2.6
									c1.4,1.8,2.6,3.8,3.7,5.8c2,4,3.2,8.4,3.6,12.8c0.4,4.4-0.1,8.9-1.5,13.2c-0.7,2.2-1.6,4.3-2.7,6.3c-0.6,1-1.2,2-1.8,3
									c-0.3,0.5-0.7,1-1,1.4v-0.7H-167v-45L-140.3,398.3L-140.3,398.3z"/>
							</g>
						</g>
					</g>
				</g>
				<g>
					<g>
						<g>
							<g>
								<defs>
									<circle id="SVGID_5_" cx="-144.7" cy="420.9" r="20"/>
								</defs>
								<clipPath id="SVGID_6_">
									<use xlink:href="#SVGID_5_"  style="overflow:visible;"/>
								</clipPath>
								<path id="XMLID_602_" class="st2" d="M-140.6,398.3h1.3v-0.5c0.4,0.4,0.8,0.8,1.2,1.2c0.8,0.8,1.6,1.7,2.3,2.6
									c1.4,1.8,2.6,3.7,3.6,5.7c2,4,3.2,8.3,3.6,12.7c0.4,4.4-0.1,8.8-1.5,13.1c-0.7,2.1-1.6,4.2-2.7,6.2c-0.6,1-1.2,2-1.8,2.9
									c-0.3,0.5-0.7,1-1,1.4v-0.4h-31.6v-45L-140.6,398.3L-140.6,398.3z"/>
							</g>
						</g>
					</g>
				</g>
				<g>
					<g>
						<g>
							<g>
								<defs>
									<circle id="SVGID_7_" cx="-144.7" cy="420.9" r="20"/>
								</defs>
								<clipPath id="SVGID_8_">
									<use xlink:href="#SVGID_7_"  style="overflow:visible;"/>
								</clipPath>
								<path id="XMLID_601_" class="st3" d="M-140.8,398.3h1.3v-0.2c0.4,0.4,0.8,0.8,1.2,1.2c0.8,0.8,1.5,1.7,2.2,2.6
									c1.4,1.8,2.6,3.7,3.6,5.7c2,4,3.2,8.2,3.5,12.6c0.4,4.3-0.1,8.8-1.5,13c-0.7,2.1-1.5,4.2-2.6,6.2c-0.5,1-1.1,2-1.8,2.9
									c-0.3,0.5-0.7,0.9-1,1.4v-0.2h-31.3v-45h26.4L-140.8,398.3L-140.8,398.3z"/>
							</g>
						</g>
					</g>
				</g>
				<g>
					<g>
						<g>
							<g>
								<defs>
									<circle id="SVGID_9_" cx="-144.7" cy="420.9" r="20"/>
								</defs>
								<clipPath id="SVGID_10_">
									<use xlink:href="#SVGID_9_"  style="overflow:visible;"/>
								</clipPath>
								<path id="XMLID_600_" class="st4" d="M-141,398.3h0.7v-0.5c0.2,0.2,0.4,0.4,0.6,0.6c0.4,0.4,0.8,0.8,1.2,1.2
									c0.8,0.8,1.5,1.7,2.2,2.6c1.4,1.8,2.6,3.6,3.5,5.6c2,3.9,3.1,8.1,3.5,12.4c0.3,4.3-0.1,8.7-1.4,12.8
									c-0.7,2.1-1.5,4.1-2.6,6.1c-0.5,1-1.1,1.9-1.8,2.9c-0.3,0.5-0.7,0.9-1,1.4l0,0h-31.1v-45L-141,398.3L-141,398.3L-141,398.3z
									"/>
							</g>
						</g>
					</g>
				</g>
				<g>
					<g>
						<g>
							<g>
								<defs>
									<circle id="SVGID_11_" cx="-144.7" cy="420.9" r="20"/>
								</defs>
								<clipPath id="SVGID_12_">
									<use xlink:href="#SVGID_11_"  style="overflow:visible;"/>
								</clipPath>
								<path id="XMLID_599_" class="st5" d="M-141.3,398.3h0.6V398c0.2,0.2,0.4,0.4,0.6,0.6c0.4,0.4,0.8,0.8,1.2,1.2
									c0.8,0.8,1.5,1.7,2.2,2.5c1.4,1.7,2.5,3.6,3.5,5.5c1.9,3.9,3.1,8.1,3.4,12.3c0.3,4.3-0.1,8.6-1.4,12.7
									c-0.6,2.1-1.5,4.1-2.6,6c-0.5,1-1.1,1.9-1.8,2.8c-0.3,0.5-0.7,0.9-1,1.4c-0.2,0.2-0.3,0.4-0.5,0.7v-0.5h-30.3v-45
									L-141.3,398.3L-141.3,398.3z"/>
							</g>
						</g>
					</g>
				</g>
				<g>
					<g>
						<g>
							<g>
								<defs>
									<circle id="SVGID_13_" cx="-144.7" cy="420.9" r="20"/>
								</defs>
								<clipPath id="SVGID_14_">
									<use xlink:href="#SVGID_13_"  style="overflow:visible;"/>
								</clipPath>
								<path id="XMLID_598_" class="st6" d="M-141.5,397.8c6.9,5.9,10.8,14.1,11.5,22.5c0.3,4.2-0.1,8.5-1.4,12.6
									c-0.6,2-1.5,4-2.5,6c-0.5,1-1.1,1.9-1.7,2.8c-0.3,0.5-0.6,0.9-1,1.4c-0.2,0.2-0.3,0.4-0.5,0.7v-0.2h-30v-45h25.7
									L-141.5,397.8L-141.5,397.8z"/>
							</g>
						</g>
					</g>
				</g>
				<g>
					<g>
						<g>
							<g>
								<defs>
									<circle id="SVGID_15_" cx="-144.7" cy="420.9" r="20"/>
								</defs>
								<clipPath id="SVGID_16_">
									<use xlink:href="#SVGID_15_"  style="overflow:visible;"/>
								</clipPath>
								<path id="XMLID_597_" class="st7" d="M-141.7,398c13.7,11.7,15.4,32.3,3.7,46v-0.7h-29.2v-45h25.4L-141.7,398L-141.7,398z"
									/>
							</g>
						</g>
					</g>
				</g>
				<g>
					<g>
						<g>
							<g>
								<defs>
									<circle id="SVGID_17_" cx="-144.7" cy="420.9" r="20"/>
								</defs>
								<clipPath id="SVGID_18_">
									<use xlink:href="#SVGID_17_"  style="overflow:visible;"/>
								</clipPath>
								<path id="XMLID_596_" class="st8" d="M-142,398.3c13.6,11.5,15.2,31.9,3.7,45.5v-0.4h-28.9v-45L-142,398.3L-142,398.3z"/>
							</g>
						</g>
					</g>
				</g>
				<g>
					<g>
						<g>
							<g>
								<defs>
									<circle id="SVGID_19_" cx="-144.7" cy="420.9" r="20"/>
								</defs>
								<clipPath id="SVGID_20_">
									<use xlink:href="#SVGID_19_"  style="overflow:visible;"/>
								</clipPath>
								<path id="XMLID_595_" class="st9" d="M-142.2,398.6c13.4,11.4,15,31.5,3.6,45v-0.2h-28.6v-45h23.7v-0.8
									C-143,397.9-142.6,398.2-142.2,398.6z"/>
							</g>
						</g>
					</g>
				</g>
				<g>
					<g>
						<g>
							<g>
								<defs>
									<circle id="SVGID_21_" cx="-144.7" cy="420.9" r="20"/>
								</defs>
								<clipPath id="SVGID_22_">
									<use xlink:href="#SVGID_21_"  style="overflow:visible;"/>
								</clipPath>
								<path id="XMLID_594_" class="st10" d="M-142.4,398.9c13.3,11.3,14.9,31.2,3.6,44.5c-0.2,0.2-0.4,0.4-0.5,0.6v-0.6h-27.8v-45
									h23.5v-0.5C-143.3,398.2-142.8,398.5-142.4,398.9z"/>
							</g>
						</g>
					</g>
				</g>
				<g>
					<g>
						<g>
							<g>
								<defs>
									<circle id="SVGID_23_" cx="-144.7" cy="420.9" r="20"/>
								</defs>
								<clipPath id="SVGID_24_">
									<use xlink:href="#SVGID_23_"  style="overflow:visible;"/>
								</clipPath>
								<path id="XMLID_593_" class="st11" d="M-142.7,399.1c13.1,11.2,14.7,30.8,3.6,44c-0.2,0.2-0.4,0.4-0.5,0.6v-0.3h-27.5v-45
									h23.3v-0.2C-143.5,398.4-143.1,398.8-142.7,399.1z"/>
							</g>
						</g>
					</g>
				</g>
				<g>
					<g>
						<g>
							<g>
								<defs>
									<circle id="SVGID_25_" cx="-144.7" cy="420.9" r="20"/>
								</defs>
								<clipPath id="SVGID_26_">
									<use xlink:href="#SVGID_25_"  style="overflow:visible;"/>
								</clipPath>
								<path id="XMLID_592_" class="st12" d="M-142.9,399.4c13,11,14.5,30.5,3.5,43.5c-0.3,0.4-0.7,0.8-1.1,1.2v-0.7h-26.7v-45
									h22.4V398c0.2,0.2,0.4,0.3,0.6,0.5C-143.7,398.7-143.3,399.1-142.9,399.4z"/>
							</g>
						</g>
					</g>
				</g>
				<g>
					<g>
						<g>
							<g>
								<defs>
									<circle id="SVGID_27_" cx="-144.7" cy="420.9" r="20"/>
								</defs>
								<clipPath id="SVGID_28_">
									<use xlink:href="#SVGID_27_"  style="overflow:visible;"/>
								</clipPath>
								<path id="XMLID_591_" class="st13" d="M-143.1,399.7c12.8,10.9,14.4,30.1,3.5,43c-0.3,0.4-0.7,0.8-1,1.2v-0.4h-26.5v-45
									h21.6v-0.6C-144.7,398.4-143.9,399-143.1,399.7z"/>
							</g>
						</g>
					</g>
				</g>
				<g>
					<g>
						<g>
							<g>
								<defs>
									<circle id="SVGID_29_" cx="-144.7" cy="420.9" r="20"/>
								</defs>
								<clipPath id="SVGID_30_">
									<use xlink:href="#SVGID_29_"  style="overflow:visible;"/>
								</clipPath>
								<path id="XMLID_590_" class="st14" d="M-143.4,399.9c12.7,10.8,14.2,29.8,3.4,42.5c-0.3,0.4-0.7,0.8-1,1.2v-0.2h-26.2v-45
									h21.4v-0.3C-145,398.6-144.1,399.3-143.4,399.9z"/>
							</g>
						</g>
					</g>
				</g>
				<g>
					<g>
						<g>
							<g>
								<defs>
									<circle id="SVGID_31_" cx="-144.7" cy="420.9" r="20"/>
								</defs>
								<clipPath id="SVGID_32_">
									<use xlink:href="#SVGID_31_"  style="overflow:visible;"/>
								</clipPath>
								<path id="XMLID_589_" class="st15" d="M-143.6,400.2c12.5,10.6,14,29.4,3.4,42c-0.3,0.4-0.7,0.8-1,1.1
									c-0.2,0.2-0.4,0.4-0.5,0.5v-0.5h-25.4v-45h19.9v-0.8c0.4,0.3,0.8,0.5,1.3,0.8C-145.2,398.9-144.4,399.6-143.6,400.2z"/>
							</g>
						</g>
					</g>
				</g>
				<g>
					<g>
						<g>
							<g>
								<defs>
									<circle id="SVGID_33_" cx="-144.7" cy="420.9" r="20"/>
								</defs>
								<clipPath id="SVGID_34_">
									<use xlink:href="#SVGID_33_"  style="overflow:visible;"/>
								</clipPath>
								<path id="XMLID_588_" class="st16" d="M-143.8,400.5c12.4,10.5,13.9,29.1,3.4,41.5c-0.7,0.8-1.3,1.5-2.1,2.2v-0.8h-24.7v-45
									h19.7v-0.5c0.4,0.3,0.8,0.5,1.2,0.8C-145.4,399.2-144.6,399.8-143.8,400.5z"/>
							</g>
						</g>
					</g>
				</g>
				<g>
					<g>
						<g>
							<g>
								<defs>
									<circle id="SVGID_35_" cx="-144.7" cy="420.9" r="20"/>
								</defs>
								<clipPath id="SVGID_36_">
									<use xlink:href="#SVGID_35_"  style="overflow:visible;"/>
								</clipPath>
								<path id="XMLID_587_" class="st17" d="M-144,400.8c12.2,10.4,13.7,28.7,3.3,41c-0.6,0.8-1.3,1.5-2,2.2v-0.5h-24.4v-45h19.5
									v-0.2c0.4,0.3,0.8,0.5,1.2,0.8C-145.6,399.5-144.8,400.1-144,400.8z"/>
							</g>
						</g>
					</g>
				</g>
				<g>
					<g>
						<g>
							<g>
								<defs>
									<circle id="SVGID_37_" cx="-144.7" cy="420.9" r="20"/>
								</defs>
								<clipPath id="SVGID_38_">
									<use xlink:href="#SVGID_37_"  style="overflow:visible;"/>
								</clipPath>
								<path id="XMLID_586_" class="st18" d="M-144.3,401c12.1,10.3,13.5,28.4,3.3,40.4c-0.6,0.8-1.3,1.5-2,2.1v-0.3h-24.2v-45
									h18.1v-0.6C-147.4,398.6-145.8,399.7-144.3,401z"/>
							</g>
						</g>
					</g>
				</g>
				<g>
					<g>
						<g>
							<g>
								<defs>
									<circle id="SVGID_39_" cx="-144.7" cy="420.9" r="20"/>
								</defs>
								<clipPath id="SVGID_40_">
									<use xlink:href="#SVGID_39_"  style="overflow:visible;"/>
								</clipPath>
								<path id="XMLID_585_" class="st19" d="M-144.5,401.3c11.9,10.1,13.4,28,3.2,39.9c-0.6,0.7-1.3,1.4-2,2.1l0,0h-23.9v-45h17.9
									V398C-147.6,399-146,400-144.5,401.3z"/>
							</g>
						</g>
					</g>
				</g>
				<g>
					<g>
						<g>
							<g>
								<defs>
									<circle id="SVGID_41_" cx="-144.7" cy="420.9" r="20"/>
								</defs>
								<clipPath id="SVGID_42_">
									<use xlink:href="#SVGID_41_"  style="overflow:visible;"/>
								</clipPath>
								<path id="XMLID_584_" class="st20" d="M-144.7,401.6c11.8,10,13.2,27.7,3.2,39.4c-0.6,0.7-1.3,1.4-2,2.1
									c-0.3,0.3-0.7,0.6-1,1v-0.7h-22.6v-45h16.5v-0.6c0.4,0.2,0.8,0.4,1.2,0.6C-147.8,399.3-146.2,400.3-144.7,401.6z"/>
							</g>
						</g>
					</g>
				</g>
				<g>
					<g>
						<g>
							<g>
								<defs>
									<circle id="SVGID_43_" cx="-144.7" cy="420.9" r="20"/>
								</defs>
								<clipPath id="SVGID_44_">
									<use xlink:href="#SVGID_43_"  style="overflow:visible;"/>
								</clipPath>
								<path id="XMLID_583_" class="st21" d="M-145,401.8c11.6,9.9,13,27.3,3.1,38.9c-0.6,0.7-1.3,1.4-1.9,2.1
									c-0.3,0.3-0.7,0.6-1,0.9v-0.4h-22.4v-45h16.4V398c0.4,0.2,0.8,0.4,1.2,0.6C-148,399.6-146.4,400.6-145,401.8z"/>
							</g>
						</g>
					</g>
				</g>
				<g>
					<g>
						<g>
							<g>
								<defs>
									<circle id="SVGID_45_" cx="-144.7" cy="420.9" r="20"/>
								</defs>
								<clipPath id="SVGID_46_">
									<use xlink:href="#SVGID_45_"  style="overflow:visible;"/>
								</clipPath>
								<path id="XMLID_582_" class="st22" d="M-145.2,402.1c11.5,9.8,12.9,27,3.1,38.4c-0.6,0.7-1.2,1.4-1.9,2
									c-0.3,0.3-0.7,0.6-1,0.9v-0.2h-22.2v-45h15v-0.5c0.8,0.4,1.6,0.7,2.4,1.2C-148.2,399.9-146.6,400.9-145.2,402.1z"/>
							</g>
						</g>
					</g>
				</g>
				<g>
					<g>
						<g>
							<g>
								<defs>
									<circle id="SVGID_47_" cx="-144.7" cy="420.9" r="20"/>
								</defs>
								<clipPath id="SVGID_48_">
									<use xlink:href="#SVGID_47_"  style="overflow:visible;"/>
								</clipPath>
								<path id="XMLID_581_" class="st23" d="M-145.4,402.4c11.3,9.6,12.7,26.6,3.1,37.9c-1.2,1.4-2.5,2.7-3.9,3.8v-0.7h-20.9v-45
									h14.9v-0.2c0.8,0.3,1.6,0.7,2.4,1.2C-148.3,400.2-146.8,401.2-145.4,402.4z"/>
							</g>
						</g>
					</g>
				</g>
				<g>
					<g>
						<g>
							<g>
								<defs>
									<circle id="SVGID_49_" cx="-144.7" cy="420.9" r="20"/>
								</defs>
								<clipPath id="SVGID_50_">
									<use xlink:href="#SVGID_49_"  style="overflow:visible;"/>
								</clipPath>
								<path id="XMLID_580_" class="st24" d="M-145.7,402.7c11.2,9.5,12.5,26.3,3,37.4c-1.2,1.4-2.5,2.6-3.9,3.7v-0.5h-20.7v-45
									h12.3v-0.8C-151.6,398.6-148.5,400.3-145.7,402.7z"/>
							</g>
						</g>
					</g>
				</g>
				<g>
					<g>
						<g>
							<g>
								<defs>
									<circle id="SVGID_51_" cx="-144.7" cy="420.9" r="20"/>
								</defs>
								<clipPath id="SVGID_52_">
									<use xlink:href="#SVGID_51_"  style="overflow:visible;"/>
								</clipPath>
								<path id="XMLID_579_" class="st25" d="M-145.9,402.9c11,9.4,12.4,25.9,3,36.9c-1.2,1.4-2.5,2.6-3.8,3.7v-0.2h-20.4v-45h12.2
									v-0.4C-151.7,398.9-148.6,400.6-145.9,402.9z"/>
							</g>
						</g>
					</g>
				</g>
				<g>
					<g>
						<g>
							<g>
								<defs>
									<circle id="SVGID_53_" cx="-144.7" cy="420.9" r="20"/>
								</defs>
								<clipPath id="SVGID_54_">
									<use xlink:href="#SVGID_53_"  style="overflow:visible;"/>
								</clipPath>
								<path id="XMLID_364_" class="st26" d="M-146.1,403.2c10.9,9.2,12.2,25.6,2.9,36.4c-1.2,1.4-2.4,2.6-3.8,3.6
									c-0.3,0.3-0.7,0.5-1,0.8v-0.7h-19.2v-45h12.1v-0.1C-151.9,399.2-148.8,400.9-146.1,403.2z"/>
							</g>
						</g>
					</g>
				</g>
				<g>
					<g>
						<g>
							<g>
								<defs>
									<circle id="SVGID_55_" cx="-144.7" cy="420.9" r="20"/>
								</defs>
								<clipPath id="SVGID_56_">
									<use xlink:href="#SVGID_55_"  style="overflow:visible;"/>
								</clipPath>
								<path id="XMLID_363_" class="st27" d="M-146.4,403.5c10.7,9.1,12,25.2,2.9,35.9c-1.1,1.3-2.4,2.5-3.7,3.6
									c-0.3,0.3-0.7,0.5-1,0.8v-0.4h-19v-45h7.1v-0.8c1.6,0.2,3.2,0.5,4.8,1C-152,399.6-149,401.2-146.4,403.5z"/>
							</g>
						</g>
					</g>
				</g>
				<g>
					<g>
						<g>
							<g>
								<defs>
									<circle id="SVGID_57_" cx="-144.7" cy="420.9" r="20"/>
								</defs>
								<clipPath id="SVGID_58_">
									<use xlink:href="#SVGID_57_"  style="overflow:visible;"/>
								</clipPath>
								<path id="XMLID_362_" class="st28" d="M-146.6,403.7c10.6,9,11.9,24.9,2.9,35.4c-1.1,1.3-2.4,2.5-3.7,3.5
									c-0.7,0.5-1.3,1-2,1.4v-0.8h-17.8v-45h2.3v-0.5c3.2-0.3,6.5,0.1,9.6,1.1C-152.2,399.9-149.2,401.5-146.6,403.7z"/>
							</g>
						</g>
					</g>
				</g>
				<g>
					<g>
						<g>
							<g>
								<defs>
									<circle id="SVGID_59_" cx="-144.7" cy="420.9" r="20"/>
								</defs>
								<clipPath id="SVGID_60_">
									<use xlink:href="#SVGID_59_"  style="overflow:visible;"/>
								</clipPath>
								<path id="XMLID_361_" class="st29" d="M-146.8,404c10.4,8.9,11.7,24.5,2.8,34.9c-1.1,1.3-2.3,2.5-3.6,3.5
									c-0.6,0.5-1.3,1-2,1.4v-0.5h-17.6v-44.9l0,0c0.8-0.1,1.6-0.2,2.4-0.3C-158.5,397.7-152,399.6-146.8,404z"/>
							</g>
						</g>
					</g>
				</g>
				<g>
					<g>
						<g>
							<g>
								<defs>
									<circle id="SVGID_61_" cx="-144.7" cy="420.9" r="20"/>
								</defs>
								<clipPath id="SVGID_62_">
									<use xlink:href="#SVGID_61_"  style="overflow:visible;"/>
								</clipPath>
								<path id="XMLID_360_" class="st30" d="M-147,404.3c10.3,8.7,11.5,24.1,2.8,34.4c-1.1,1.3-2.3,2.4-3.6,3.4
									c-0.6,0.5-1.3,1-2,1.4v-0.2h-17.4v-44.4h-0.6c0.2,0,0.4-0.1,0.6-0.1c0.8-0.1,1.5-0.2,2.3-0.3
									C-158.6,398-152.2,399.9-147,404.3z"/>
							</g>
						</g>
					</g>
				</g>
				<g>
					<g>
						<g>
							<g>
								<defs>
									<circle id="SVGID_63_" cx="-144.7" cy="420.9" r="20"/>
								</defs>
								<clipPath id="SVGID_64_">
									<use xlink:href="#SVGID_63_"  style="overflow:visible;"/>
								</clipPath>
								<path id="XMLID_359_" class="st31" d="M-147.3,404.6c10.1,8.6,11.4,23.8,2.7,33.9c-1.1,1.3-2.3,2.4-3.5,3.4
									c-0.6,0.5-1.3,1-1.9,1.4c-0.3,0.2-0.7,0.4-1,0.6v-0.5h-16.2v-44h-0.5c0.2,0,0.4-0.1,0.6-0.1c0.8-0.1,1.5-0.2,2.3-0.3
									C-158.7,398.4-152.3,400.3-147.3,404.6z"/>
							</g>
						</g>
					</g>
				</g>
				<g>
					<g>
						<g>
							<g>
								<defs>
									<circle id="SVGID_65_" cx="-144.7" cy="420.9" r="20"/>
								</defs>
								<clipPath id="SVGID_66_">
									<use xlink:href="#SVGID_65_"  style="overflow:visible;"/>
								</clipPath>
								<path id="XMLID_358_" class="st32" d="M-147.5,404.8c10,8.5,11.2,23.4,2.7,33.4c-2.1,2.5-4.6,4.4-7.4,5.8v-0.7h-15v-43.7
									h-0.4c0.2,0,0.4-0.1,0.6-0.1c0.7-0.1,1.5-0.2,2.3-0.3C-158.7,398.8-152.5,400.6-147.5,404.8z"/>
							</g>
						</g>
					</g>
				</g>
				<g>
					<g>
						<g>
							<g>
								<defs>
									<circle id="SVGID_67_" cx="-144.7" cy="420.9" r="20"/>
								</defs>
								<clipPath id="SVGID_68_">
									<use xlink:href="#SVGID_67_"  style="overflow:visible;"/>
								</clipPath>
								<path id="XMLID_357_" class="st33" d="M-147.7,405.1c9.8,8.4,11,23.1,2.7,32.9c-2.1,2.5-4.6,4.4-7.3,5.7v-0.4h-14.8V400
									h-0.3c0.2,0,0.4-0.1,0.6-0.1c0.7-0.1,1.5-0.2,2.2-0.3C-158.8,399.1-152.6,400.9-147.7,405.1z"/>
							</g>
						</g>
					</g>
				</g>
				<g>
					<g>
						<g>
							<g>
								<defs>
									<circle id="SVGID_69_" cx="-144.7" cy="420.9" r="20"/>
								</defs>
								<clipPath id="SVGID_70_">
									<use xlink:href="#SVGID_69_"  style="overflow:visible;"/>
								</clipPath>
								<path id="XMLID_356_" class="st34" d="M-148,405.4c9.7,8.2,10.8,22.7,2.6,32.4c-2.1,2.4-4.5,4.3-7.2,5.6v-0.1h-14.7v-42.9
									h-0.8c0.4-0.1,0.7-0.2,1.1-0.2c0.7-0.1,1.5-0.2,2.2-0.3C-158.9,399.5-152.8,401.3-148,405.4z"/>
							</g>
						</g>
					</g>
				</g>
				<g>
					<g>
						<g>
							<g>
								<defs>
									<circle id="SVGID_71_" cx="-144.7" cy="420.9" r="20"/>
								</defs>
								<clipPath id="SVGID_72_">
									<use xlink:href="#SVGID_71_"  style="overflow:visible;"/>
								</clipPath>
								<path id="XMLID_355_" class="st35" d="M-148.2,405.6c9.5,8.1,10.7,22.4,2.6,31.9c-2,2.4-4.4,4.2-7.1,5.6
									c-0.7,0.3-1.3,0.6-2,0.9v-0.6h-12.5v-42.5h-0.7c0.4-0.1,0.7-0.2,1.1-0.2c0.7-0.1,1.4-0.2,2.2-0.3
									C-158.9,399.9-153,401.6-148.2,405.6z"/>
							</g>
						</g>
					</g>
				</g>
				<g>
					<g>
						<g>
							<g>
								<defs>
									<circle id="SVGID_73_" cx="-144.7" cy="420.9" r="20"/>
								</defs>
								<clipPath id="SVGID_74_">
									<use xlink:href="#SVGID_73_"  style="overflow:visible;"/>
								</clipPath>
								<path id="XMLID_354_" class="st36" d="M-148.4,405.9c9.4,8,10.5,22,2.5,31.4c-2,2.3-4.4,4.2-7,5.5c-0.6,0.3-1.3,0.6-2,0.9
									v-0.3h-12.4v-42.2h-0.7c0.3-0.1,0.7-0.2,1-0.2c0.7-0.1,1.4-0.2,2.1-0.3C-159,400.2-153.1,401.9-148.4,405.9z"/>
							</g>
						</g>
					</g>
				</g>
				<g>
					<g>
						<g>
							<g>
								<defs>
									<circle id="SVGID_75_" cx="-144.7" cy="420.9" r="20"/>
								</defs>
								<clipPath id="SVGID_76_">
									<use xlink:href="#SVGID_75_"  style="overflow:visible;"/>
								</clipPath>
								<path id="XMLID_353_" class="st37" d="M-148.7,406.2c9.2,7.8,10.3,21.7,2.5,30.9c-2,2.3-4.3,4.1-6.8,5.4
									c-1.3,0.6-2.6,1.1-4,1.5v-0.6h-10.2v-41.8h-0.6c0.3-0.1,0.7-0.1,1-0.2c0.7-0.1,1.4-0.2,2.1-0.3
									C-159,400.6-153.3,402.3-148.7,406.2z"/>
							</g>
						</g>
					</g>
				</g>
				<g>
					<g>
						<g>
							<g>
								<defs>
									<circle id="SVGID_77_" cx="-144.7" cy="420.9" r="20"/>
								</defs>
								<clipPath id="SVGID_78_">
									<use xlink:href="#SVGID_77_"  style="overflow:visible;"/>
								</clipPath>
								<path id="XMLID_352_" class="st38" d="M-148.9,406.5c9.1,7.7,10.2,21.3,2.5,30.4c-1.9,2.3-4.2,4-6.7,5.3
									c-1.3,0.6-2.6,1.1-3.9,1.5v-0.3h-10.1v-41.5h-0.5c0.3-0.1,0.7-0.1,1-0.2c0.7-0.1,1.4-0.2,2.1-0.3
									C-159.1,400.9-153.4,402.6-148.9,406.5z"/>
							</g>
						</g>
					</g>
				</g>
				<g>
					<g>
						<g>
							<g>
								<defs>
									<circle id="SVGID_79_" cx="-144.7" cy="420.9" r="20"/>
								</defs>
								<clipPath id="SVGID_80_">
									<use xlink:href="#SVGID_79_"  style="overflow:visible;"/>
								</clipPath>
								<path id="XMLID_351_" class="st39" d="M-149.1,406.7c8.9,7.6,10,21,2.4,29.9c-3.8,4.5-9,7-14.4,7.4v-0.7h-6v-41.1h-0.4
									c0.3-0.1,0.7-0.1,1-0.2c0.7-0.1,1.3-0.2,2-0.3C-159.2,401.3-153.6,402.9-149.1,406.7z"/>
							</g>
						</g>
					</g>
				</g>
				<g>
					<g>
						<g>
							<g>
								<defs>
									<circle id="SVGID_81_" cx="-144.7" cy="420.9" r="20"/>
								</defs>
								<clipPath id="SVGID_82_">
									<use xlink:href="#SVGID_81_"  style="overflow:visible;"/>
								</clipPath>
								<path id="XMLID_350_" class="st40" d="M-149.4,407c8.8,7.5,9.8,20.6,2.4,29.4c-3.7,4.4-8.9,6.8-14.2,7.3v-0.3h-4v0.3
									c-0.7-0.1-1.3-0.2-2-0.3c-0.2,0-0.3-0.1-0.5-0.1h0.5v-40.6h-0.3c0.3-0.1,0.7-0.1,1-0.2c0.7-0.1,1.3-0.2,2-0.3
									C-159.2,401.7-153.7,403.3-149.4,407z"/>
							</g>
						</g>
					</g>
				</g>
				<g>
					<g>
						<g>
							<g>
								<defs>
									<circle id="SVGID_83_" cx="-144.7" cy="420.9" r="20"/>
								</defs>
								<clipPath id="SVGID_84_">
									<use xlink:href="#SVGID_83_"  style="overflow:visible;"/>
								</clipPath>
								<path id="XMLID_349_" class="st41" d="M-149.6,407.3c8.6,7.3,9.7,20.3,2.3,28.9c-3.7,4.3-8.7,6.7-14,7.2
									c-1.3,0.1-2.6,0.1-3.9-0.1c-0.7-0.1-1.3-0.2-2-0.3c-0.2,0-0.3-0.1-0.5-0.1h0.4V403h-0.3c0.3-0.1,0.6-0.1,1-0.2
									c0.6-0.1,1.3-0.2,2-0.3C-159.3,402-153.9,403.6-149.6,407.3z"/>
							</g>
						</g>
					</g>
				</g>
				<g>
					<g>
						<g>
							<g>
								<defs>
									<circle id="SVGID_85_" cx="-144.7" cy="420.9" r="20"/>
								</defs>
								<clipPath id="SVGID_86_">
									<use xlink:href="#SVGID_85_"  style="overflow:visible;"/>
								</clipPath>
								<path id="XMLID_348_" class="st42" d="M-149.8,407.5c8.5,7.2,9.5,19.9,2.3,28.4c-3.6,4.2-8.6,6.6-13.7,7
									c-1.3,0.1-2.6,0.1-3.9-0.1c-0.6-0.1-1.3-0.2-1.9-0.3c-0.3-0.1-0.6-0.1-0.9-0.2h0.8v-39h-0.2c0.3-0.1,0.6-0.1,0.9-0.2
									c0.6-0.1,1.3-0.2,1.9-0.2C-159.3,402.4-154.1,403.9-149.8,407.5z"/>
							</g>
						</g>
					</g>
				</g>
				<g>
					<g>
						<g>
							<g>
								<defs>
									<circle id="SVGID_87_" cx="-144.7" cy="420.9" r="20"/>
								</defs>
								<clipPath id="SVGID_88_">
									<use xlink:href="#SVGID_87_"  style="overflow:visible;"/>
								</clipPath>
								<path id="XMLID_347_" class="st43" d="M-150,407.8c8.3,7.1,9.3,19.6,2.3,27.9c-3.5,4.2-8.4,6.5-13.5,6.9
									c-1.3,0.1-2.5,0.1-3.8-0.1c-0.6-0.1-1.3-0.2-1.9-0.3c-0.3-0.1-0.6-0.1-0.9-0.2h0.7v-38.4h-0.1c0.3-0.1,0.6-0.1,0.9-0.2
									c0.6-0.1,1.3-0.2,1.9-0.2C-159.4,402.8-154.2,404.3-150,407.8z"/>
							</g>
						</g>
					</g>
				</g>
				<g>
					<g>
						<g>
							<g>
								<defs>
									<circle id="SVGID_89_" cx="-144.7" cy="420.9" r="20"/>
								</defs>
								<clipPath id="SVGID_90_">
									<use xlink:href="#SVGID_89_"  style="overflow:visible;"/>
								</clipPath>
								<path id="XMLID_346_" class="st44" d="M-150.3,408.1c8.2,7,9.2,19.2,2.2,27.4c-3.5,4.1-8.3,6.4-13.2,6.8
									c-1.2,0.1-2.5,0.1-3.7-0.1c-0.6-0.1-1.2-0.2-1.9-0.3c-0.3-0.1-0.6-0.1-0.9-0.2h0.6V404l0,0c0.3-0.1,0.6-0.1,0.9-0.2
									c0.6-0.1,1.2-0.2,1.8-0.2C-159.5,403.1-154.4,404.6-150.3,408.1z"/>
							</g>
						</g>
					</g>
				</g>
				<g>
					<g>
						<g>
							<g>
								<defs>
									<circle id="SVGID_91_" cx="-144.7" cy="420.9" r="20"/>
								</defs>
								<clipPath id="SVGID_92_">
									<use xlink:href="#SVGID_91_"  style="overflow:visible;"/>
								</clipPath>
								<path id="XMLID_345_" class="st45" d="M-150.5,408.4c8,6.8,9,18.9,2.2,26.9c-3.4,4-8.1,6.3-13,6.7c-1.2,0.1-2.4,0.1-3.7-0.1
									c-0.6-0.1-1.2-0.2-1.8-0.3c-0.3-0.1-0.6-0.1-0.9-0.2h0.5v-36.9h-0.4c0.1,0,0.3-0.1,0.4-0.1c0.3-0.1,0.6-0.1,0.9-0.2
									c0.6-0.1,1.2-0.2,1.8-0.2C-159.5,403.5-154.5,405-150.5,408.4z"/>
							</g>
						</g>
					</g>
				</g>
				<g>
					<g>
						<g>
							<g>
								<defs>
									<circle id="SVGID_93_" cx="-144.7" cy="420.9" r="20"/>
								</defs>
								<clipPath id="SVGID_94_">
									<use xlink:href="#SVGID_93_"  style="overflow:visible;"/>
								</clipPath>
								<path id="XMLID_344_" class="st46" d="M-150.7,408.6c7.9,6.7,8.8,18.5,2.1,26.4c-3.3,3.9-8,6.1-12.7,6.5
									c-1.2,0.1-2.4,0.1-3.6-0.1c-0.6-0.1-1.2-0.2-1.8-0.3c-0.3-0.1-0.6-0.1-0.9-0.2h0.4v-36.1h-0.7c1.2-0.3,2.3-0.5,3.5-0.6
									C-159.6,403.9-154.7,405.3-150.7,408.6z"/>
							</g>
						</g>
					</g>
				</g>
				<g>
					<g>
						<g>
							<g>
								<defs>
									<circle id="SVGID_95_" cx="-144.7" cy="420.9" r="20"/>
								</defs>
								<clipPath id="SVGID_96_">
									<use xlink:href="#SVGID_95_"  style="overflow:visible;"/>
								</clipPath>
								<path id="XMLID_343_" class="st47" d="M-151,408.9c7.7,6.6,8.7,18.2,2.1,25.9c-3.3,3.9-7.8,6-12.5,6.4
									c-1.2,0.1-2.4,0.1-3.5-0.1c-0.6-0.1-1.2-0.2-1.7-0.3c-0.3-0.1-0.6-0.1-0.9-0.2h0.3v-35.4h-0.6c1.1-0.3,2.3-0.5,3.5-0.6
									C-159.7,404.2-154.8,405.6-151,408.9z"/>
							</g>
						</g>
					</g>
				</g>
				<g>
					<g>
						<g>
							<g>
								<defs>
									<circle id="SVGID_97_" cx="-144.7" cy="420.9" r="20"/>
								</defs>
								<clipPath id="SVGID_98_">
									<use xlink:href="#SVGID_97_"  style="overflow:visible;"/>
								</clipPath>
								<path id="XMLID_342_" class="st48" d="M-151.2,409.2c7.6,6.4,8.5,17.8,2.1,25.4c-3.2,3.8-7.7,5.9-12.3,6.3
									c-1.1,0.1-2.3,0.1-3.5-0.1c-0.6-0.1-1.1-0.2-1.7-0.3c-0.3-0.1-0.6-0.1-0.8-0.2h0.3v-34.8h-0.5c1.1-0.3,2.3-0.5,3.4-0.6
									C-159.7,404.6-155,406-151.2,409.2z"/>
							</g>
						</g>
					</g>
				</g>
				<g>
					<g>
						<g>
							<g>
								<defs>
									<circle id="SVGID_99_" cx="-144.7" cy="420.9" r="20"/>
								</defs>
								<clipPath id="SVGID_100_">
									<use xlink:href="#SVGID_99_"  style="overflow:visible;"/>
								</clipPath>
								<path id="XMLID_341_" class="st49" d="M-151.4,409.4c7.4,6.3,8.3,17.5,2,24.9c-3.2,3.7-7.5,5.8-12,6.2
									c-1.1,0.1-2.3,0.1-3.4-0.1c-0.6-0.1-1.1-0.2-1.7-0.3c-0.3-0.1-0.6-0.1-0.8-0.2h0.2v-34.1h-0.4c1.1-0.3,2.2-0.5,3.3-0.6
									C-159.8,404.9-155.1,406.3-151.4,409.4z"/>
							</g>
						</g>
					</g>
				</g>
				<g>
					<g>
						<g>
							<g>
								<defs>
									<circle id="SVGID_101_" cx="-144.7" cy="420.9" r="20"/>
								</defs>
								<clipPath id="SVGID_102_">
									<use xlink:href="#SVGID_101_"  style="overflow:visible;"/>
								</clipPath>
								<path id="XMLID_340_" class="st50" d="M-151.7,409.7c7.3,6.2,8.2,17.1,2,24.4c-3.1,3.6-7.4,5.7-11.8,6
									c-1.1,0.1-2.2,0.1-3.3,0c-0.6-0.1-1.1-0.1-1.6-0.3c-0.3-0.1-0.5-0.1-0.8-0.2h0.1v-33.4h-0.3c1.1-0.3,2.2-0.5,3.3-0.6
									C-159.8,405.3-155.3,406.6-151.7,409.7z"/>
							</g>
						</g>
					</g>
				</g>
				<g>
					<g>
						<g>
							<g>
								<defs>
									<circle id="SVGID_103_" cx="-144.7" cy="420.9" r="20"/>
								</defs>
								<clipPath id="SVGID_104_">
									<use xlink:href="#SVGID_103_"  style="overflow:visible;"/>
								</clipPath>
								<path id="XMLID_339_" class="st51" d="M-157.3,416.3c3.6,3.1,4.1,8.5,1,12.2c-1.5,1.8-3.7,2.8-5.9,3c-1.1,0.1-2.2,0-3.3-0.4
									c-0.5-0.2-1.1-0.4-1.6-0.7c-0.3-0.1-0.5-0.3-0.7-0.5h0.6v-14.4h-0.3c0.2-0.2,0.5-0.3,0.7-0.4c1-0.5,2.1-0.8,3.2-0.9
									C-161.4,414.1-159.1,414.8-157.3,416.3z"/>
							</g>
						</g>
					</g>
				</g>
			</g>
		</g>
		<g id="XMLID_334_">
			<circle id="XMLID_335_" class="st52" cx="-160" cy="406.9" r="3.2"/>
		</g>
		<g id="XMLID_332_">
			<circle id="XMLID_333_" class="st52" cx="-164.6" cy="421.3" r="4.7"/>
		</g>
		<g id="XMLID_330_">
			<circle id="XMLID_331_" class="st53" cx="-163.2" cy="430.1" r="4.2"/>
		</g>
		<g id="XMLID_328_">
			<circle id="XMLID_329_" class="st53" cx="-163.1" cy="413" r="3.6"/>
		</g>
		<g id="XMLID_326_">
			<circle id="XMLID_327_" class="st52" cx="-163.4" cy="429.6" r="2.5"/>
		</g>
		<g id="XMLID_324_">
			<circle id="XMLID_325_" class="st52" cx="-172.1" cy="421" r="1.8"/>
		</g>
		<g id="XMLID_322_">
			<circle id="XMLID_323_" class="st52" cx="-170" cy="432.6" r="1.8"/>
		</g>
		<g id="XMLID_320_">
			<circle id="XMLID_321_" class="st52" cx="-166.1" cy="403.6" r="1.8"/>
		</g>
		<g id="XMLID_318_">
			<circle id="XMLID_319_" class="st52" cx="-182.9" cy="411.7" r="1.1"/>
		</g>
		<g id="XMLID_316_">
			<circle id="XMLID_317_" class="st52" cx="-175.3" cy="415.3" r="1.1"/>
		</g>
		<g id="XMLID_314_">
			<circle id="XMLID_315_" class="st52" cx="-171.2" cy="409.6" r="1"/>
		</g>
		<g id="XMLID_312_">
			<circle id="XMLID_313_" class="st52" cx="-175.4" cy="426.7" r="1"/>
		</g>
		<g id="XMLID_310_">
			<circle id="XMLID_311_" class="st52" cx="-178.7" cy="420" r="1"/>
		</g>
		<g id="XMLID_308_">
			<circle id="XMLID_309_" class="st52" cx="-173.1" cy="404.7" r="1"/>
		</g>
		<g id="XMLID_306_">
			<circle id="XMLID_307_" class="st52" cx="-163.5" cy="412.7" r="2.5"/>
		</g>
		<g id="XMLID_304_">
			<circle id="XMLID_305_" class="st52" cx="-157.8" cy="434.6" r="3.2"/>
		</g>
		<g id="XMLID_301_">
			<path id="XMLID_302_" class="st53" d="M-144.2,429.3c-1.3,0-2.5-0.2-3.6-0.6c-1.2-0.4-2.2-1.1-3.2-2l1.7-2.1
				c0.8,0.7,1.6,1.2,2.4,1.6c0.8,0.4,1.7,0.6,2.8,0.6c0.9,0,1.6-0.2,2.1-0.6s0.8-0.9,0.8-1.5l0,0c0-0.3-0.1-0.6-0.2-0.8
				c-0.1-0.2-0.3-0.4-0.6-0.6s-0.7-0.4-1.1-0.6c-0.5-0.2-1.1-0.3-1.9-0.5c-0.9-0.2-1.7-0.4-2.3-0.7c-0.7-0.3-1.3-0.6-1.7-0.9
				c-0.5-0.4-0.8-0.8-1.1-1.4c-0.2-0.5-0.4-1.2-0.4-1.9l0,0c0-0.7,0.1-1.4,0.4-1.9c0.3-0.6,0.7-1.1,1.2-1.5s1.1-0.7,1.8-1
				c0.7-0.2,1.4-0.4,2.3-0.4c1.2,0,2.3,0.2,3.3,0.5c1,0.4,1.9,0.9,2.7,1.5l-1.6,2.2c-0.8-0.5-1.5-1-2.2-1.3s-1.5-0.4-2.2-0.4
				c-0.8,0-1.5,0.2-2,0.6s-0.7,0.8-0.7,1.4l0,0c0,0.3,0.1,0.6,0.2,0.8c0.1,0.2,0.3,0.5,0.6,0.7s0.7,0.4,1.2,0.6s1.2,0.4,1.9,0.5
				c0.9,0.2,1.6,0.5,2.3,0.7c0.7,0.3,1.2,0.6,1.7,1c0.4,0.4,0.8,0.8,1,1.3s0.3,1.1,0.3,1.8l0,0c0,0.8-0.1,1.5-0.4,2.1
				s-0.7,1.1-1.2,1.6s-1.1,0.7-1.8,1C-142.5,429.2-143.3,429.3-144.2,429.3z"/>
		</g>
	</g>
	<g id="XMLID_269_">
		<path id="XMLID_298_" class="st54" d="M-110.4,423.3c-0.1,0.8-0.4,1.4-1,1.8s-1.3,0.6-2.2,0.5s-2.1-0.8-2.6-1.7l0.3-0.3
			c0.7,1,1.3,1.4,2.2,1.6c0.6,0.1,1.2-0.1,1.6-0.4s0.6-0.7,0.7-1.2s-0.1-0.9-0.3-1.2c-0.3-0.3-0.8-0.7-1.6-1.2
			c-0.7-0.4-1.2-0.7-1.6-1c-0.3-0.3-0.6-0.6-0.8-1c-0.2-0.4-0.2-0.8-0.2-1.3c0.1-0.7,0.3-1.2,0.9-1.6c0.5-0.4,1.1-0.5,1.8-0.5
			c0.4,0,0.7,0.1,1.1,0.3c0.3,0.2,0.7,0.5,1,0.9l-0.3,0.2c-0.1-0.1-0.2-0.2-0.3-0.3c-0.4-0.5-0.9-0.7-1.5-0.8c-0.6-0.1-1,0-1.3,0.3
			s-0.5,0.6-0.5,0.9c0,0.4,0.1,0.8,0.4,1.1s0.8,0.7,1.6,1.2c0.8,0.4,1.3,0.8,1.6,1c0.3,0.3,0.6,0.6,0.8,1
			C-110.4,422.4-110.4,422.8-110.4,423.3z"/>
		<path id="XMLID_296_" class="st54" d="M-100.2,423.6l-2.8-2.8l-0.7,0.6v1.8v2.5h-1.4v-2.5v-4.8V416h1.4v2.4v2.5l2.9-2.7l0,0
			l2.5-2.3h0.5l-1.8,1.7c-0.2,0.2-0.4,0.3-0.6,0.6l-0.2,0.2l-1.6,1.4l3.6,3.7c0.1,0.1,0.2,0.2,0.3,0.3l0,0l0,0l1.8,1.8h-1.9
			l-1.5-1.6l0,0C-99.9,423.9-100.1,423.8-100.2,423.6z"/>
		<path id="XMLID_294_" class="st54" d="M-89.9,416v2.4v4.8v2.5h-1.4v-2.5v-4.8V416H-89.9z"/>
		<path id="XMLID_292_" class="st54" d="M-76.9,416v1.8v7.9h-0.3l-6.8-8.9v6.6v2.1h-0.3v-2.2v-5V416h1.5l5.5,7.4v-5.7V416H-76.9
			L-76.9,416z"/>
		<path id="XMLID_290_" class="st54" d="M-56.7,423.1v-6.2l-3.9,8.8h-0.3l-3.8-8.8v5.7v3.1H-65v-3.1v-4.3V416h1.3l3.6,8l3.5-8h1.3
			v2.3v4.8v2.6h-1.4C-56.7,425.7-56.7,423.1-56.7,423.1z"/>
		<path id="XMLID_288_" class="st54" d="M-47.2,425.3h3v0.3h-5.6v-2.5v-0.7v-0.6v-3.6v-2.4h5.6v0.3h-3h-1.3v2.1v0.3v1.7h1h1.8v0.3
			h-1.8h-1v1.2v0.2v0.4v0.7v2.2L-47.2,425.3L-47.2,425.3z"/>
		<path id="XMLID_285_" class="st54" d="M-39.4,416c2.2,0,2.7,0,2.7,0c1.4,0,2.5,0.2,3.3,0.7c0.8,0.4,1.4,1,1.8,1.8
			c0.4,0.7,0.6,1.6,0.6,2.6c0,0.7-0.1,1.3-0.3,1.9s-0.5,1.1-0.9,1.4c-0.4,0.4-0.8,0.7-1.3,0.9s-0.9,0.3-1.4,0.4
			c-0.4,0.1-1,0.1-1.8,0.1h-2.6L-39.4,416L-39.4,416L-39.4,416z M-36.6,425.4c0.8,0,1.5-0.1,2.1-0.3c0.5-0.2,1-0.7,1.3-1.3
			c0.4-0.7,0.6-1.5,0.6-2.6c0-0.8-0.1-1.5-0.3-2.2c-0.2-0.6-0.5-1.1-0.9-1.5s-0.8-0.7-1.3-0.8s-1.1-0.2-1.8-0.2c-0.4,0-0.8,0-1.1,0
			v9h1.4V425.4z"/>
		<path id="XMLID_283_" class="st54" d="M-24.3,416v2.4v4.8v2.5h-1.4v-2.5v-4.8V416H-24.3z"/>
		<path id="XMLID_281_" class="st54" d="M-11.3,424.3c-0.8,0.9-1.9,1.4-3.1,1.4c-1.3,0-2.4-0.4-3.3-1.3c-0.8-0.9-1.3-2-1.3-3.4
			c0-0.9,0.2-1.8,0.6-2.6c0.4-0.8,0.9-1.4,1.7-1.8c0.7-0.4,1.5-0.6,2.3-0.6c0.7,0,1.3,0.1,1.9,0.4c0.6,0.3,1,0.6,1.3,0.9l0,0
			l-0.3,0.3c-0.1-0.2-0.3-0.4-0.5-0.6c-0.6-0.5-1.4-0.7-2.2-0.7c-1,0-1.8,0.4-2.3,1.2c-0.5,0.8-0.9,1.9-0.9,3.4
			c0,1.4,0.3,2.5,0.9,3.2s1.4,1.1,2.4,1.1c0.5,0,1-0.1,1.5-0.4c0.4-0.2,0.8-0.5,1.1-0.9L-11.3,424.3z"/>
		<path id="XMLID_279_" class="st54" d="M-5,416v2.4v4.8v2.5h-1.4v-2.5v-4.8V416H-5z"/>
		<path id="XMLID_277_" class="st54" d="M8,416v1.8v7.9H7.7l-6.8-8.9v6.6v2.1H0.6v-2.2v-5V416h1.5l5.5,7.4v-5.7V416H8L8,416z"/>
		<path id="XMLID_274_" class="st54" d="M18.6,422.1H15l-1.4,3.6h-0.5l4-9.7h0.3l4.1,9.7H20c-0.5-1.3-0.7-1.8-0.7-1.8L18.6,422.1z
			 M18.5,421.8l-1.7-4.1l-1.7,4.1H18.5z"/>
		<path id="XMLID_272_" class="st54" d="M33.3,425.4v0.3h-6.7v-2.5v-4.8V416H28v9.4H33.3z"/>
		<path id="XMLID_270_" class="st54" d="M42.3,423.3c-0.1,0.8-0.4,1.4-1,1.8s-1.3,0.6-2.2,0.5s-2.1-0.8-2.6-1.7l0.3-0.3
			c0.7,1,1.3,1.4,2.2,1.6c0.6,0.1,1.2-0.1,1.6-0.4c0.4-0.3,0.6-0.7,0.7-1.2c0.1-0.5-0.1-0.9-0.3-1.2c-0.3-0.3-0.8-0.7-1.6-1.2
			c-0.7-0.4-1.2-0.7-1.6-1c-0.3-0.3-0.6-0.6-0.8-1c-0.2-0.4-0.2-0.8-0.2-1.3c0.1-0.7,0.3-1.2,0.9-1.6c0.5-0.4,1.1-0.5,1.8-0.5
			c0.4,0,0.7,0.1,1.1,0.3c0.3,0.2,0.7,0.5,1,0.9l-0.3,0.2c-0.1-0.1-0.2-0.2-0.3-0.3c-0.4-0.5-0.9-0.7-1.5-0.8s-1,0-1.3,0.3
			c-0.3,0.3-0.5,0.6-0.5,0.9c0,0.4,0.1,0.8,0.4,1.1s0.8,0.7,1.6,1.2c0.8,0.4,1.3,0.8,1.6,1c0.3,0.3,0.6,0.6,0.8,1
			C42.3,422.4,42.3,422.8,42.3,423.3z"/>
	</g>
</g>
</svg>
