<?xml version="1.0" encoding="utf-8"?>
<!-- Generator: Adobe Illustrator 19.0.0, SVG Export Plug-In . SVG Version: 6.00 Build 0)  -->
<svg version="1.1" id="Layer_1" xmlns="http://www.w3.org/2000/svg" xmlns:xlink="http://www.w3.org/1999/xlink" x="0px" y="0px"
	 viewBox="-156 395.9 282.9 50" style="enable-background:new -156 395.9 282.9 50;" xml:space="preserve">
<style type="text/css">
	.st0{clip-path:url(#SVGID_2_);fill:#386CC0;}
	.st1{clip-path:url(#SVGID_4_);fill:#386CC0;}
	.st2{clip-path:url(#SVGID_6_);fill:#386DC0;}
	.st3{clip-path:url(#SVGID_8_);fill:#396EC1;}
	.st4{clip-path:url(#SVGID_10_);fill:#396FC1;}
	.st5{clip-path:url(#SVGID_12_);fill:#3970C2;}
	.st6{clip-path:url(#SVGID_14_);fill:#3971C2;}
	.st7{clip-path:url(#SVGID_16_);fill:#3A72C3;}
	.st8{clip-path:url(#SVGID_18_);fill:#3A73C3;}
	.st9{clip-path:url(#SVGID_20_);fill:#3A74C4;}
	.st10{clip-path:url(#SVGID_22_);fill:#3B75C4;}
	.st11{clip-path:url(#SVGID_24_);fill:#3B76C5;}
	.st12{clip-path:url(#SVGID_26_);fill:#3B77C5;}
	.st13{clip-path:url(#SVGID_28_);fill:#3B78C5;}
	.st14{clip-path:url(#SVGID_30_);fill:#3C79C6;}
	.st15{clip-path:url(#SVGID_32_);fill:#3C7AC6;}
	.st16{clip-path:url(#SVGID_34_);fill:#3C7BC7;}
	.st17{clip-path:url(#SVGID_36_);fill:#3D7CC7;}
	.st18{clip-path:url(#SVGID_38_);fill:#3D7DC8;}
	.st19{clip-path:url(#SVGID_40_);fill:#3D7EC8;}
	.st20{clip-path:url(#SVGID_42_);fill:#3E7FC9;}
	.st21{clip-path:url(#SVGID_44_);fill:#3E80C9;}
	.st22{clip-path:url(#SVGID_46_);fill:#3E81CA;}
	.st23{clip-path:url(#SVGID_48_);fill:#3E82CA;}
	.st24{clip-path:url(#SVGID_50_);fill:#3F83CB;}
	.st25{clip-path:url(#SVGID_52_);fill:#3F84CB;}
	.st26{clip-path:url(#SVGID_54_);fill:#3F86CB;}
	.st27{clip-path:url(#SVGID_56_);fill:#4087CC;}
	.st28{clip-path:url(#SVGID_58_);fill:#4088CC;}
	.st29{clip-path:url(#SVGID_60_);fill:#4089CD;}
	.st30{clip-path:url(#SVGID_62_);fill:#408ACD;}
	.st31{clip-path:url(#SVGID_64_);fill:#418BCE;}
	.st32{clip-path:url(#SVGID_66_);fill:#418CCE;}
	.st33{clip-path:url(#SVGID_68_);fill:#418DCF;}
	.st34{clip-path:url(#SVGID_70_);fill:#428ECF;}
	.st35{clip-path:url(#SVGID_72_);fill:#428FD0;}
	.st36{clip-path:url(#SVGID_74_);fill:#4290D0;}
	.st37{clip-path:url(#SVGID_76_);fill:#4291D0;}
	.st38{clip-path:url(#SVGID_78_);fill:#4392D1;}
	.st39{clip-path:url(#SVGID_80_);fill:#4393D1;}
	.st40{clip-path:url(#SVGID_82_);fill:#4394D2;}
	.st41{clip-path:url(#SVGID_84_);fill:#4495D2;}
	.st42{clip-path:url(#SVGID_86_);fill:#4496D3;}
	.st43{clip-path:url(#SVGID_88_);fill:#4497D3;}
	.st44{clip-path:url(#SVGID_90_);fill:#4598D4;}
	.st45{clip-path:url(#SVGID_92_);fill:#4599D4;}
	.st46{clip-path:url(#SVGID_94_);fill:#459AD5;}
	.st47{clip-path:url(#SVGID_96_);fill:#459BD5;}
	.st48{clip-path:url(#SVGID_98_);fill:#469CD6;}
	.st49{clip-path:url(#SVGID_100_);fill:#469DD6;}
	.st50{clip-path:url(#SVGID_102_);fill:#469DD6;}
	.st51{clip-path:url(#SVGID_104_);fill:#479FD7;}
	.st52{fill:#479FD7;}
	.st53{fill:#FFFFFF;}
	.st54{fill:#74797F;}
</style>
<g id="XMLID_417_">
	<g id="XMLID_449_">
		<g id="XMLID_485_">
			<g id="XMLID_486_">
				<g>
					<g>
						<g>
							<defs>
								<circle id="SVGID_1_" cx="-106.8" cy="420.9" r="25"/>
							</defs>
							<clipPath id="SVGID_2_">
								<use xlink:href="#SVGID_1_"  style="overflow:visible;"/>
							</clipPath>
							<rect id="XMLID_539_" x="-134.8" y="392.9" class="st0" width="56" height="56"/>
						</g>
					</g>
				</g>
				<g>
					<g>
						<g>
							<defs>
								<circle id="SVGID_3_" cx="-106.8" cy="420.9" r="25"/>
							</defs>
							<clipPath id="SVGID_4_">
								<use xlink:href="#SVGID_3_"  style="overflow:visible;"/>
							</clipPath>
							<path id="XMLID_538_" class="st1" d="M-101.4,392.7h1.7v-0.9c0.5,0.5,1.1,1,1.6,1.6c1,1.1,2,2.2,2.9,3.3
								c1.8,2.3,3.3,4.7,4.6,7.2c2.5,5,4,10.5,4.5,16c0.4,5.5-0.2,11.2-1.9,16.6c-0.8,2.7-2,5.3-3.4,7.9c-0.7,1.3-1.5,2.5-2.3,3.7
								c-0.4,0.6-0.9,1.2-1.3,1.8v-0.8h-39.9v-56.3L-101.4,392.7L-101.4,392.7L-101.4,392.7z"/>
						</g>
					</g>
				</g>
				<g>
					<g>
						<g>
							<defs>
								<circle id="SVGID_5_" cx="-106.8" cy="420.9" r="25"/>
							</defs>
							<clipPath id="SVGID_6_">
								<use xlink:href="#SVGID_5_"  style="overflow:visible;"/>
							</clipPath>
							<path id="XMLID_537_" class="st2" d="M-101.7,392.7h1.6v-0.6c0.5,0.5,1.1,1,1.6,1.5c1,1,1.9,2.1,2.8,3.3
								c1.8,2.2,3.3,4.6,4.5,7.1c2.5,5,4,10.4,4.4,15.9s-0.2,11.1-1.8,16.4c-0.8,2.7-1.9,5.3-3.3,7.8c-0.7,1.3-1.4,2.5-2.3,3.7
								c-0.4,0.6-0.8,1.2-1.3,1.8v-0.5H-135v-56.3h33.3L-101.7,392.7L-101.7,392.7z"/>
						</g>
					</g>
				</g>
				<g>
					<g>
						<g>
							<defs>
								<circle id="SVGID_7_" cx="-106.8" cy="420.9" r="25"/>
							</defs>
							<clipPath id="SVGID_8_">
								<use xlink:href="#SVGID_7_"  style="overflow:visible;"/>
							</clipPath>
							<path id="XMLID_536_" class="st3" d="M-102,392.7h1.6v-0.3c0.5,0.5,1,1,1.5,1.5c1,1,1.9,2.1,2.8,3.2c1.7,2.2,3.2,4.6,4.5,7.1
								c2.5,4.9,4,10.3,4.4,15.7s-0.2,10.9-1.8,16.2c-0.8,2.6-1.9,5.2-3.3,7.7c-0.7,1.2-1.4,2.5-2.2,3.6c-0.4,0.6-0.8,1.2-1.3,1.8
								v-0.3H-135v-56.3L-102,392.7L-102,392.7z"/>
						</g>
					</g>
				</g>
				<g>
					<g>
						<g>
							<defs>
								<circle id="SVGID_9_" cx="-106.8" cy="420.9" r="25"/>
							</defs>
							<clipPath id="SVGID_10_">
								<use xlink:href="#SVGID_9_"  style="overflow:visible;"/>
							</clipPath>
							<path id="XMLID_535_" class="st4" d="M-102.3,392.7h0.8v-0.6c0.3,0.2,0.5,0.5,0.8,0.7c0.5,0.5,1,1,1.5,1.5
								c1,1,1.9,2.1,2.8,3.2c1.7,2.2,3.2,4.5,4.4,7c2.5,4.9,3.9,10.2,4.3,15.5c0.4,5.4-0.2,10.8-1.8,16c-0.8,2.6-1.9,5.2-3.3,7.6
								c-0.7,1.2-1.4,2.4-2.2,3.6c-0.4,0.6-0.8,1.2-1.3,1.7l0,0h-38.8v-56.3L-102.3,392.7L-102.3,392.7z"/>
						</g>
					</g>
				</g>
				<g>
					<g>
						<g>
							<defs>
								<circle id="SVGID_11_" cx="-106.8" cy="420.9" r="25"/>
							</defs>
							<clipPath id="SVGID_12_">
								<use xlink:href="#SVGID_11_"  style="overflow:visible;"/>
							</clipPath>
							<path id="XMLID_534_" class="st5" d="M-102.6,392.7h0.8v-0.3c0.3,0.2,0.5,0.5,0.8,0.7c0.5,0.5,1,1,1.5,1.5
								c1,1,1.9,2.1,2.7,3.2c1.7,2.2,3.2,4.5,4.4,6.9c2.4,4.8,3.9,10.1,4.3,15.4c0.4,5.3-0.2,10.7-1.8,15.9
								c-0.8,2.6-1.9,5.1-3.2,7.5c-0.7,1.2-1.4,2.4-2.2,3.6c-0.4,0.6-0.8,1.2-1.2,1.7c-0.2,0.3-0.4,0.6-0.7,0.8V449H-135v-56.3
								L-102.6,392.7L-102.6,392.7z"/>
						</g>
					</g>
				</g>
				<g>
					<g>
						<g>
							<defs>
								<circle id="SVGID_13_" cx="-106.8" cy="420.9" r="25"/>
							</defs>
							<clipPath id="SVGID_14_">
								<use xlink:href="#SVGID_13_"  style="overflow:visible;"/>
							</clipPath>
							<path id="XMLID_533_" class="st6" d="M-102.9,392c8.7,7.4,13.5,17.6,14.4,28.1c0.4,5.3-0.2,10.6-1.8,15.7
								c-0.8,2.6-1.9,5-3.2,7.4c-0.7,1.2-1.4,2.4-2.2,3.5c-0.4,0.6-0.8,1.1-1.2,1.7c-0.2,0.3-0.4,0.6-0.7,0.8v-0.3h-37.5v-56.3h32.1
								L-102.9,392L-102.9,392L-102.9,392z"/>
						</g>
					</g>
				</g>
				<g>
					<g>
						<g>
							<defs>
								<circle id="SVGID_15_" cx="-106.8" cy="420.9" r="25"/>
							</defs>
							<clipPath id="SVGID_16_">
								<use xlink:href="#SVGID_15_"  style="overflow:visible;"/>
							</clipPath>
							<path id="XMLID_532_" class="st7" d="M-103.2,392.4C-86,407-84,432.7-98.6,449.9v-0.8H-135v-56.3h31.8V392.4L-103.2,392.4z"
								/>
						</g>
					</g>
				</g>
				<g>
					<g>
						<g>
							<defs>
								<circle id="SVGID_17_" cx="-106.8" cy="420.9" r="25"/>
							</defs>
							<clipPath id="SVGID_18_">
								<use xlink:href="#SVGID_17_"  style="overflow:visible;"/>
							</clipPath>
							<path id="XMLID_531_" class="st8" d="M-103.5,392.7c17,14.4,19,39.9,4.6,56.8V449H-135v-56.3H-103.5L-103.5,392.7z"/>
						</g>
					</g>
				</g>
				<g>
					<g>
						<g>
							<defs>
								<circle id="SVGID_19_" cx="-106.8" cy="420.9" r="25"/>
							</defs>
							<clipPath id="SVGID_20_">
								<use xlink:href="#SVGID_19_"  style="overflow:visible;"/>
							</clipPath>
							<path id="XMLID_530_" class="st9" d="M-103.7,393c16.8,14.3,18.8,39.4,4.5,56.2V449H-135v-56.3h29.6v-1
								C-104.8,392.2-104.3,392.6-103.7,393z"/>
						</g>
					</g>
				</g>
				<g>
					<g>
						<g>
							<defs>
								<circle id="SVGID_21_" cx="-106.8" cy="420.9" r="25"/>
							</defs>
							<clipPath id="SVGID_22_">
								<use xlink:href="#SVGID_21_"  style="overflow:visible;"/>
							</clipPath>
							<path id="XMLID_529_" class="st10" d="M-104,393.4c16.6,14.1,18.6,39,4.5,55.6c-0.2,0.3-0.4,0.5-0.7,0.8v-0.7H-135v-56.3
								h29.4v-0.7C-105.1,392.5-104.5,392.9-104,393.4z"/>
						</g>
					</g>
				</g>
				<g>
					<g>
						<g>
							<defs>
								<circle id="SVGID_23_" cx="-106.8" cy="420.9" r="25"/>
							</defs>
							<clipPath id="SVGID_24_">
								<use xlink:href="#SVGID_23_"  style="overflow:visible;"/>
							</clipPath>
							<path id="XMLID_528_" class="st11" d="M-104.3,393.7c16.4,13.9,18.4,38.6,4.4,55c-0.2,0.3-0.4,0.5-0.7,0.8v-0.4H-135v-56.3
								h29.1v-0.3C-105.4,392.9-104.8,393.3-104.3,393.7z"/>
						</g>
					</g>
				</g>
				<g>
					<g>
						<g>
							<defs>
								<circle id="SVGID_25_" cx="-106.8" cy="420.9" r="25"/>
							</defs>
							<clipPath id="SVGID_26_">
								<use xlink:href="#SVGID_25_"  style="overflow:visible;"/>
							</clipPath>
							<path id="XMLID_527_" class="st12" d="M-104.6,394.1c16.2,13.8,18.2,38.1,4.4,54.3c-0.4,0.5-0.9,1-1.3,1.5V449h-33.4v-56.3
								h28v-0.5c0.3,0.2,0.5,0.4,0.8,0.6C-105.6,393.2-105.1,393.6-104.6,394.1z"/>
						</g>
					</g>
				</g>
				<g>
					<g>
						<g>
							<defs>
								<circle id="SVGID_27_" cx="-106.8" cy="420.9" r="25"/>
							</defs>
							<clipPath id="SVGID_28_">
								<use xlink:href="#SVGID_27_"  style="overflow:visible;"/>
							</clipPath>
							<path id="XMLID_526_" class="st13" d="M-104.9,394.4c16,13.6,18,37.7,4.3,53.7c-0.4,0.5-0.9,1-1.3,1.5V449H-135v-56.3h27V392
								C-106.9,392.8-105.9,393.5-104.9,394.4z"/>
						</g>
					</g>
				</g>
				<g>
					<g>
						<g>
							<defs>
								<circle id="SVGID_29_" cx="-106.8" cy="420.9" r="25"/>
							</defs>
							<clipPath id="SVGID_30_">
								<use xlink:href="#SVGID_29_"  style="overflow:visible;"/>
							</clipPath>
							<path id="XMLID_525_" class="st14" d="M-105.2,394.7c15.8,13.5,17.8,37.2,4.3,53.1c-0.4,0.5-0.9,1-1.3,1.4v-0.3H-135v-56.3
								h26.7v-0.3C-107.2,393.1-106.2,393.9-105.2,394.7z"/>
						</g>
					</g>
				</g>
				<g>
					<g>
						<g>
							<defs>
								<circle id="SVGID_31_" cx="-106.8" cy="420.9" r="25"/>
							</defs>
							<clipPath id="SVGID_32_">
								<use xlink:href="#SVGID_31_"  style="overflow:visible;"/>
							</clipPath>
							<path id="XMLID_524_" class="st15" d="M-105.5,395.1c15.7,13.3,17.6,36.8,4.2,52.4c-0.4,0.5-0.8,1-1.3,1.4
								c-0.2,0.2-0.4,0.5-0.7,0.7V449h-31.8v-56.3h24.9v-1c0.5,0.3,1.1,0.7,1.6,1C-107.5,393.5-106.5,394.2-105.5,395.1z"/>
						</g>
					</g>
				</g>
				<g>
					<g>
						<g>
							<defs>
								<circle id="SVGID_33_" cx="-106.8" cy="420.9" r="25"/>
							</defs>
							<clipPath id="SVGID_34_">
								<use xlink:href="#SVGID_33_"  style="overflow:visible;"/>
							</clipPath>
							<path id="XMLID_523_" class="st16" d="M-105.8,395.4c15.5,13.2,17.3,36.4,4.2,51.8c-0.8,1-1.7,1.9-2.6,2.7v-1H-135v-56.3
								h24.7v-0.5c0.5,0.3,1,0.7,1.6,1C-107.7,393.8-106.7,394.6-105.8,395.4z"/>
						</g>
					</g>
				</g>
				<g>
					<g>
						<g>
							<defs>
								<circle id="SVGID_35_" cx="-106.8" cy="420.9" r="25"/>
							</defs>
							<clipPath id="SVGID_36_">
								<use xlink:href="#SVGID_35_"  style="overflow:visible;"/>
							</clipPath>
							<path id="XMLID_522_" class="st17" d="M-106.1,395.8c15.3,13,17.1,35.9,4.1,51.2c-0.8,1-1.7,1.9-2.5,2.7v-0.6H-135v-56.3
								h24.4v-0.2c0.5,0.3,1,0.7,1.5,1C-108,394.2-107,394.9-106.1,395.8z"/>
						</g>
					</g>
				</g>
				<g>
					<g>
						<g>
							<defs>
								<circle id="SVGID_37_" cx="-106.8" cy="420.9" r="25"/>
							</defs>
							<clipPath id="SVGID_38_">
								<use xlink:href="#SVGID_37_"  style="overflow:visible;"/>
							</clipPath>
							<path id="XMLID_521_" class="st18" d="M-106.3,396.1c15.1,12.8,16.9,35.5,4.1,50.6c-0.8,0.9-1.6,1.8-2.5,2.7v-0.3h-30.2
								v-56.3h22.6V392C-110.2,393.1-108.2,394.5-106.3,396.1z"/>
						</g>
					</g>
				</g>
				<g>
					<g>
						<g>
							<defs>
								<circle id="SVGID_39_" cx="-106.8" cy="420.9" r="25"/>
							</defs>
							<clipPath id="SVGID_40_">
								<use xlink:href="#SVGID_39_"  style="overflow:visible;"/>
							</clipPath>
							<path id="XMLID_520_" class="st19" d="M-106.6,396.4c14.9,12.7,16.7,35,4,49.9c-0.8,0.9-1.6,1.8-2.5,2.6l0,0H-135v-56.3h22.4
								v-0.4C-110.5,393.5-108.5,394.8-106.6,396.4z"/>
						</g>
					</g>
				</g>
				<g>
					<g>
						<g>
							<defs>
								<circle id="SVGID_41_" cx="-106.8" cy="420.9" r="25"/>
							</defs>
							<clipPath id="SVGID_42_">
								<use xlink:href="#SVGID_41_"  style="overflow:visible;"/>
							</clipPath>
							<path id="XMLID_519_" class="st20" d="M-106.9,396.8c14.7,12.5,16.5,34.6,4,49.3c-0.8,0.9-1.6,1.8-2.5,2.6
								c-0.4,0.4-0.9,0.8-1.3,1.2V449H-135v-56.3h20.7v-0.8c0.5,0.3,1,0.5,1.5,0.8C-110.7,393.9-108.8,395.2-106.9,396.8z"/>
						</g>
					</g>
				</g>
				<g>
					<g>
						<g>
							<defs>
								<circle id="SVGID_43_" cx="-106.8" cy="420.9" r="25"/>
							</defs>
							<clipPath id="SVGID_44_">
								<use xlink:href="#SVGID_43_"  style="overflow:visible;"/>
							</clipPath>
							<path id="XMLID_518_" class="st21" d="M-107.2,397.1c14.5,12.4,16.3,34.1,3.9,48.7c-0.8,0.9-1.6,1.8-2.4,2.6
								c-0.4,0.4-0.9,0.8-1.3,1.2v-0.5h-28v-56.3h20.5v-0.4c0.5,0.2,1,0.5,1.5,0.8C-111,394.2-109,395.6-107.2,397.1z"/>
						</g>
					</g>
				</g>
				<g>
					<g>
						<g>
							<defs>
								<circle id="SVGID_45_" cx="-106.8" cy="420.9" r="25"/>
							</defs>
							<clipPath id="SVGID_46_">
								<use xlink:href="#SVGID_45_"  style="overflow:visible;"/>
							</clipPath>
							<path id="XMLID_517_" class="st22" d="M-107.5,397.4c14.3,12.2,16.1,33.7,3.9,48c-0.8,0.9-1.6,1.7-2.4,2.5
								c-0.4,0.4-0.8,0.8-1.3,1.2v-0.2H-135v-56.3h18.8v-0.7c1,0.4,2,0.9,3,1.5C-111.2,394.6-109.3,395.9-107.5,397.4z"/>
						</g>
					</g>
				</g>
				<g>
					<g>
						<g>
							<defs>
								<circle id="SVGID_47_" cx="-106.8" cy="420.9" r="25"/>
							</defs>
							<clipPath id="SVGID_48_">
								<use xlink:href="#SVGID_47_"  style="overflow:visible;"/>
							</clipPath>
							<path id="XMLID_516_" class="st23" d="M-107.8,397.8c14.2,12,15.9,33.3,3.8,47.4c-1.5,1.8-3.2,3.3-4.9,4.7V449H-135v-56.3
								h18.6v-0.3c1,0.4,2,0.9,3,1.5C-111.4,395-109.6,396.3-107.8,397.8z"/>
						</g>
					</g>
				</g>
				<g>
					<g>
						<g>
							<defs>
								<circle id="SVGID_49_" cx="-106.8" cy="420.9" r="25"/>
							</defs>
							<clipPath id="SVGID_50_">
								<use xlink:href="#SVGID_49_"  style="overflow:visible;"/>
							</clipPath>
							<path id="XMLID_515_" class="st24" d="M-108.1,398.1c14,11.9,15.7,32.8,3.8,46.8c-1.5,1.7-3.1,3.3-4.8,4.7V449h-25.8v-56.3
								h15.4v-1C-115.5,393-111.6,395.2-108.1,398.1z"/>
						</g>
					</g>
				</g>
				<g>
					<g>
						<g>
							<defs>
								<circle id="SVGID_51_" cx="-106.8" cy="420.9" r="25"/>
							</defs>
							<clipPath id="SVGID_52_">
								<use xlink:href="#SVGID_51_"  style="overflow:visible;"/>
							</clipPath>
							<path id="XMLID_514_" class="st25" d="M-108.4,398.5c13.8,11.7,15.4,32.4,3.7,46.2c-1.5,1.7-3.1,3.3-4.8,4.6v-0.2h-25.6
								v-56.3h15.2v-0.6C-115.7,393.4-111.8,395.5-108.4,398.5z"/>
						</g>
					</g>
				</g>
				<g>
					<g>
						<g>
							<defs>
								<circle id="SVGID_53_" cx="-106.8" cy="420.9" r="25"/>
							</defs>
							<clipPath id="SVGID_54_">
								<use xlink:href="#SVGID_53_"  style="overflow:visible;"/>
							</clipPath>
							<path id="XMLID_513_" class="st26" d="M-108.6,398.8c13.6,11.6,15.2,31.9,3.7,45.5c-1.4,1.7-3,3.2-4.7,4.5
								c-0.4,0.3-0.9,0.6-1.3,1V449h-24v-56.3h15.1v-0.1C-115.9,393.9-112,395.9-108.6,398.8z"/>
						</g>
					</g>
				</g>
				<g>
					<g>
						<g>
							<defs>
								<circle id="SVGID_55_" cx="-106.8" cy="420.9" r="25"/>
							</defs>
							<clipPath id="SVGID_56_">
								<use xlink:href="#SVGID_55_"  style="overflow:visible;"/>
							</clipPath>
							<path id="XMLID_512_" class="st27" d="M-108.9,399.1c13.4,11.4,15,31.5,3.6,44.9c-1.4,1.7-3,3.2-4.7,4.5
								c-0.4,0.3-0.8,0.6-1.3,0.9v-0.5H-135v-56.3h8.9v-1c2,0.2,4.1,0.6,6,1.3C-116.1,394.3-112.3,396.3-108.9,399.1z"/>
						</g>
					</g>
				</g>
				<g>
					<g>
						<g>
							<defs>
								<circle id="SVGID_57_" cx="-106.8" cy="420.9" r="25"/>
							</defs>
							<clipPath id="SVGID_58_">
								<use xlink:href="#SVGID_57_"  style="overflow:visible;"/>
							</clipPath>
							<path id="XMLID_511_" class="st28" d="M-109.2,399.5c13.2,11.2,14.8,31.1,3.6,44.3c-1.4,1.7-2.9,3.1-4.6,4.4
								c-0.8,0.6-1.7,1.2-2.5,1.8v-1h-22.2v-56.3h2.9v-0.6c4-0.3,8.1,0.1,12,1.3C-116.1,394.6-112.5,396.7-109.2,399.5z"/>
						</g>
					</g>
				</g>
				<g>
					<g>
						<g>
							<defs>
								<circle id="SVGID_59_" cx="-106.8" cy="420.9" r="25"/>
							</defs>
							<clipPath id="SVGID_60_">
								<use xlink:href="#SVGID_59_"  style="overflow:visible;"/>
							</clipPath>
							<path id="XMLID_510_" class="st29" d="M-109.5,399.8c13,11.1,14.6,30.6,3.5,43.7c-1.4,1.6-2.9,3.1-4.5,4.3
								c-0.8,0.6-1.6,1.2-2.5,1.8V449h-22v-56.1h-0.1c1-0.2,2-0.3,2.9-0.4C-124.2,391.9-116,394.3-109.5,399.8z"/>
						</g>
					</g>
				</g>
				<g>
					<g>
						<g>
							<defs>
								<circle id="SVGID_61_" cx="-106.8" cy="420.9" r="25"/>
							</defs>
							<clipPath id="SVGID_62_">
								<use xlink:href="#SVGID_61_"  style="overflow:visible;"/>
							</clipPath>
							<path id="XMLID_509_" class="st30" d="M-109.8,400.2c12.8,10.9,14.4,30.2,3.5,43c-1.4,1.6-2.9,3-4.5,4.3
								c-0.8,0.6-1.6,1.2-2.5,1.7V449H-135v-55.5h-0.7c0.2,0,0.5-0.1,0.7-0.1c1-0.2,1.9-0.3,2.9-0.4
								C-124.2,392.4-116.2,394.7-109.8,400.2z"/>
						</g>
					</g>
				</g>
				<g>
					<g>
						<g>
							<defs>
								<circle id="SVGID_63_" cx="-106.8" cy="420.9" r="25"/>
							</defs>
							<clipPath id="SVGID_64_">
								<use xlink:href="#SVGID_63_"  style="overflow:visible;"/>
							</clipPath>
							<path id="XMLID_508_" class="st31" d="M-110.1,400.5c12.7,10.8,14.2,29.7,3.4,42.4c-1.3,1.6-2.8,3-4.4,4.2
								c-0.8,0.6-1.6,1.2-2.4,1.7c-0.4,0.3-0.8,0.5-1.3,0.8V449H-135v-55.1h-0.6c0.2,0,0.5-0.1,0.7-0.1c0.9-0.2,1.9-0.3,2.9-0.4
								C-124.3,392.8-116.4,395.1-110.1,400.5z"/>
						</g>
					</g>
				</g>
				<g>
					<g>
						<g>
							<defs>
								<circle id="SVGID_65_" cx="-106.8" cy="420.9" r="25"/>
							</defs>
							<clipPath id="SVGID_66_">
								<use xlink:href="#SVGID_65_"  style="overflow:visible;"/>
							</clipPath>
							<path id="XMLID_507_" class="st32" d="M-110.4,400.8c12.5,10.6,14,29.3,3.4,41.8c-2.7,3.1-5.8,5.5-9.2,7.3V449h-18.7v-54.6
								h-0.5c0.2,0,0.5-0.1,0.7-0.1c0.9-0.2,1.9-0.3,2.8-0.4C-124.4,393.3-116.6,395.5-110.4,400.8z"/>
						</g>
					</g>
				</g>
				<g>
					<g>
						<g>
							<defs>
								<circle id="SVGID_67_" cx="-106.8" cy="420.9" r="25"/>
							</defs>
							<clipPath id="SVGID_68_">
								<use xlink:href="#SVGID_67_"  style="overflow:visible;"/>
							</clipPath>
							<path id="XMLID_506_" class="st33" d="M-110.7,401.2c12.3,10.4,13.8,28.9,3.3,41.1c-2.6,3.1-5.7,5.5-9.1,7.2V449H-135v-54.2
								h-0.4c0.2,0,0.5-0.1,0.7-0.1c0.9-0.2,1.8-0.3,2.8-0.4C-124.5,393.7-116.8,396-110.7,401.2z"/>
						</g>
					</g>
				</g>
				<g>
					<g>
						<g>
							<defs>
								<circle id="SVGID_69_" cx="-106.8" cy="420.9" r="25"/>
							</defs>
							<clipPath id="SVGID_70_">
								<use xlink:href="#SVGID_69_"  style="overflow:visible;"/>
							</clipPath>
							<path id="XMLID_505_" class="st34" d="M-111,401.5c12.1,10.3,13.6,28.4,3.3,40.5c-2.6,3-5.6,5.4-9,7.1V449H-135v-53.6h-1
								c0.4-0.1,0.9-0.2,1.4-0.3c0.9-0.2,1.8-0.3,2.7-0.4C-124.6,394.2-117,396.4-111,401.5z"/>
						</g>
					</g>
				</g>
				<g>
					<g>
						<g>
							<defs>
								<circle id="SVGID_71_" cx="-106.8" cy="420.9" r="25"/>
							</defs>
							<clipPath id="SVGID_72_">
								<use xlink:href="#SVGID_71_"  style="overflow:visible;"/>
							</clipPath>
							<path id="XMLID_504_" class="st35" d="M-111.2,401.9c11.9,10.1,13.3,28,3.2,39.9c-2.5,3-5.5,5.3-8.8,6.9
								c-0.8,0.4-1.7,0.8-2.5,1.1V449h-15.6v-53.2h-0.9c0.4-0.1,0.9-0.2,1.3-0.3c0.9-0.2,1.8-0.3,2.7-0.3
								C-124.6,394.6-117.2,396.8-111.2,401.9z"/>
						</g>
					</g>
				</g>
				<g>
					<g>
						<g>
							<defs>
								<circle id="SVGID_73_" cx="-106.8" cy="420.9" r="25"/>
							</defs>
							<clipPath id="SVGID_74_">
								<use xlink:href="#SVGID_73_"  style="overflow:visible;"/>
							</clipPath>
							<path id="XMLID_503_" class="st36" d="M-111.5,402.2c11.7,10,13.1,27.5,3.2,39.3c-2.5,2.9-5.5,5.2-8.7,6.8
								c-0.8,0.4-1.6,0.8-2.5,1.1V449h-15.4v-52.7h-0.8c0.4-0.1,0.9-0.2,1.3-0.3c0.9-0.2,1.8-0.3,2.7-0.3
								C-124.7,395.1-117.4,397.2-111.5,402.2z"/>
						</g>
					</g>
				</g>
				<g>
					<g>
						<g>
							<defs>
								<circle id="SVGID_75_" cx="-106.8" cy="420.9" r="25"/>
							</defs>
							<clipPath id="SVGID_76_">
								<use xlink:href="#SVGID_75_"  style="overflow:visible;"/>
							</clipPath>
							<path id="XMLID_502_" class="st37" d="M-111.8,402.5c11.5,9.8,12.9,27.1,3.1,38.6c-2.5,2.9-5.4,5.1-8.6,6.7
								c-1.6,0.8-3.2,1.4-4.9,1.9v-0.8H-135v-52.3h-0.7c0.4-0.1,0.9-0.2,1.3-0.3c0.9-0.2,1.7-0.3,2.6-0.3
								C-124.8,395.5-117.6,397.6-111.8,402.5z"/>
						</g>
					</g>
				</g>
				<g>
					<g>
						<g>
							<defs>
								<circle id="SVGID_77_" cx="-106.8" cy="420.9" r="25"/>
							</defs>
							<clipPath id="SVGID_78_">
								<use xlink:href="#SVGID_77_"  style="overflow:visible;"/>
							</clipPath>
							<path id="XMLID_501_" class="st38" d="M-112.1,402.9c11.3,9.6,12.7,26.7,3.1,38c-2.4,2.8-5.3,5-8.4,6.6
								c-1.6,0.8-3.2,1.4-4.9,1.9V449H-135v-51.9h-0.6c0.4-0.1,0.8-0.2,1.3-0.3c0.8-0.2,1.7-0.3,2.6-0.3
								C-124.9,396-117.8,398.1-112.1,402.9z"/>
						</g>
					</g>
				</g>
				<g>
					<g>
						<g>
							<defs>
								<circle id="SVGID_79_" cx="-106.8" cy="420.9" r="25"/>
							</defs>
							<clipPath id="SVGID_80_">
								<use xlink:href="#SVGID_79_"  style="overflow:visible;"/>
							</clipPath>
							<path id="XMLID_500_" class="st39" d="M-112.4,403.2c11.2,9.5,12.5,26.2,3,37.4c-4.7,5.6-11.3,8.7-18.1,9.3v-0.8h-7.5v-51.4
								h-0.5c0.4-0.1,0.8-0.2,1.2-0.3c0.8-0.1,1.7-0.3,2.5-0.3C-124.9,396.4-118,398.5-112.4,403.2z"/>
						</g>
					</g>
				</g>
				<g>
					<g>
						<g>
							<defs>
								<circle id="SVGID_81_" cx="-106.8" cy="420.9" r="25"/>
							</defs>
							<clipPath id="SVGID_82_">
								<use xlink:href="#SVGID_81_"  style="overflow:visible;"/>
							</clipPath>
							<path id="XMLID_499_" class="st40" d="M-112.7,403.6c11,9.3,12.3,25.8,3,36.7c-4.7,5.5-11.1,8.6-17.8,9.1V449h-5v0.3
								c-0.8-0.1-1.7-0.2-2.5-0.4c-0.2,0-0.4-0.1-0.6-0.1h0.6V398h-0.4c0.4-0.1,0.8-0.2,1.2-0.2c0.8-0.1,1.6-0.3,2.5-0.3
								C-125,396.9-118.2,398.9-112.7,403.6z"/>
						</g>
					</g>
				</g>
				<g>
					<g>
						<g>
							<defs>
								<circle id="SVGID_83_" cx="-106.8" cy="420.9" r="25"/>
							</defs>
							<clipPath id="SVGID_84_">
								<use xlink:href="#SVGID_83_"  style="overflow:visible;"/>
							</clipPath>
							<path id="XMLID_498_" class="st41" d="M-113,403.9c10.8,9.2,12.1,25.3,2.9,36.1c-4.6,5.4-10.9,8.4-17.5,8.9
								c-1.6,0.1-3.3,0.1-4.9-0.1c-0.8-0.1-1.6-0.2-2.4-0.4c-0.2,0-0.4-0.1-0.6-0.1h0.5v-49.9h-0.3c0.4-0.1,0.8-0.2,1.2-0.2
								c0.8-0.1,1.6-0.2,2.4-0.3C-125.1,397.3-118.4,399.3-113,403.9z"/>
						</g>
					</g>
				</g>
				<g>
					<g>
						<g>
							<defs>
								<circle id="SVGID_85_" cx="-106.8" cy="420.9" r="25"/>
							</defs>
							<clipPath id="SVGID_86_">
								<use xlink:href="#SVGID_85_"  style="overflow:visible;"/>
							</clipPath>
							<path id="XMLID_497_" class="st42" d="M-113.3,404.2c10.6,9,11.9,24.9,2.9,35.5c-4.5,5.3-10.7,8.3-17.2,8.8
								c-1.6,0.1-3.2,0.1-4.8-0.1c-0.8-0.1-1.6-0.2-2.4-0.4c-0.4-0.1-0.8-0.2-1.2-0.3h1v-48.9h-0.2c0.4-0.1,0.8-0.2,1.2-0.2
								c0.8-0.1,1.6-0.2,2.4-0.3C-125.2,397.8-118.6,399.7-113.3,404.2z"/>
						</g>
					</g>
				</g>
				<g>
					<g>
						<g>
							<defs>
								<circle id="SVGID_87_" cx="-106.8" cy="420.9" r="25"/>
							</defs>
							<clipPath id="SVGID_88_">
								<use xlink:href="#SVGID_87_"  style="overflow:visible;"/>
							</clipPath>
							<path id="XMLID_496_" class="st43" d="M-113.6,404.6c10.4,8.8,11.7,24.5,2.8,34.9c-4.4,5.2-10.5,8.1-16.8,8.6
								c-1.6,0.1-3.2,0.1-4.7-0.1c-0.8-0.1-1.6-0.2-2.4-0.4c-0.4-0.1-0.8-0.2-1.2-0.3h0.9v-48h-0.1c0.4-0.1,0.8-0.2,1.2-0.2
								c0.8-0.1,1.6-0.2,2.4-0.3C-125.3,398.3-118.8,400.2-113.6,404.6z"/>
						</g>
					</g>
				</g>
				<g>
					<g>
						<g>
							<defs>
								<circle id="SVGID_89_" cx="-106.8" cy="420.9" r="25"/>
							</defs>
							<clipPath id="SVGID_90_">
								<use xlink:href="#SVGID_89_"  style="overflow:visible;"/>
							</clipPath>
							<path id="XMLID_495_" class="st44" d="M-113.8,404.9c10.2,8.7,11.5,24,2.8,34.2c-4.3,5.1-10.3,8-16.5,8.5
								c-1.5,0.1-3.1,0.1-4.7-0.1c-0.8-0.1-1.5-0.2-2.3-0.4c-0.4-0.1-0.8-0.2-1.1-0.3h0.8v-47.2l0,0c0.4-0.1,0.8-0.2,1.1-0.2
								c0.8-0.1,1.5-0.2,2.3-0.3C-125.3,398.7-119,400.6-113.8,404.9z"/>
						</g>
					</g>
				</g>
				<g>
					<g>
						<g>
							<defs>
								<circle id="SVGID_91_" cx="-106.8" cy="420.9" r="25"/>
							</defs>
							<clipPath id="SVGID_92_">
								<use xlink:href="#SVGID_91_"  style="overflow:visible;"/>
							</clipPath>
							<path id="XMLID_494_" class="st45" d="M-114.1,405.3c10,8.5,11.2,23.6,2.7,33.6c-4.3,5-10.2,7.8-16.2,8.3
								c-1.5,0.1-3.1,0.1-4.6-0.1c-0.8-0.1-1.5-0.2-2.3-0.4c-0.4-0.1-0.8-0.2-1.1-0.3h0.7v-46.2h-0.5c0.2,0,0.4-0.1,0.6-0.1
								c0.4-0.1,0.7-0.2,1.1-0.2c0.8-0.1,1.5-0.2,2.3-0.3C-125.4,399.2-119.1,401-114.1,405.3z"/>
						</g>
					</g>
				</g>
				<g>
					<g>
						<g>
							<defs>
								<circle id="SVGID_93_" cx="-106.8" cy="420.9" r="25"/>
							</defs>
							<clipPath id="SVGID_94_">
								<use xlink:href="#SVGID_93_"  style="overflow:visible;"/>
							</clipPath>
							<path id="XMLID_493_" class="st46" d="M-114.4,405.6c9.8,8.4,11,23.1,2.7,33c-4.2,4.9-10,7.7-15.9,8.2
								c-1.5,0.1-3,0.1-4.5-0.1c-0.7-0.1-1.5-0.2-2.2-0.4c-0.4-0.1-0.7-0.2-1.1-0.3h0.5v-45.2h-0.9c1.4-0.4,2.9-0.7,4.4-0.8
								C-125.5,399.6-119.3,401.4-114.4,405.6z"/>
						</g>
					</g>
				</g>
				<g>
					<g>
						<g>
							<defs>
								<circle id="SVGID_95_" cx="-106.8" cy="420.9" r="25"/>
							</defs>
							<clipPath id="SVGID_96_">
								<use xlink:href="#SVGID_95_"  style="overflow:visible;"/>
							</clipPath>
							<path id="XMLID_492_" class="st47" d="M-114.7,405.9c9.7,8.2,10.8,22.7,2.6,32.4c-4.1,4.8-9.8,7.5-15.6,8
								c-1.5,0.1-2.9,0.1-4.4-0.1c-0.7-0.1-1.5-0.2-2.2-0.4c-0.4-0.1-0.7-0.2-1.1-0.3h0.4v-44.3h-0.8c1.4-0.4,2.9-0.7,4.3-0.8
								C-125.6,400.1-119.5,401.8-114.7,405.9z"/>
						</g>
					</g>
				</g>
				<g>
					<g>
						<g>
							<defs>
								<circle id="SVGID_97_" cx="-106.8" cy="420.9" r="25"/>
							</defs>
							<clipPath id="SVGID_98_">
								<use xlink:href="#SVGID_97_"  style="overflow:visible;"/>
							</clipPath>
							<path id="XMLID_491_" class="st48" d="M-115,406.3c9.5,8.1,10.6,22.3,2.6,31.7c-4,4.7-9.6,7.4-15.3,7.9
								c-1.4,0.1-2.9,0.1-4.3-0.1c-0.7-0.1-1.4-0.2-2.1-0.3c-0.4-0.1-0.7-0.2-1.1-0.3h0.3v-43.4h-0.7c1.4-0.4,2.8-0.6,4.3-0.8
								C-125.6,400.5-119.7,402.2-115,406.3z"/>
						</g>
					</g>
				</g>
				<g>
					<g>
						<g>
							<defs>
								<circle id="SVGID_99_" cx="-106.8" cy="420.9" r="25"/>
							</defs>
							<clipPath id="SVGID_100_">
								<use xlink:href="#SVGID_99_"  style="overflow:visible;"/>
							</clipPath>
							<path id="XMLID_490_" class="st49" d="M-115.3,406.6c9.3,7.9,10.4,21.8,2.5,31.1c-3.9,4.6-9.4,7.2-15,7.7
								c-1.4,0.1-2.8,0.1-4.2-0.1c-0.7-0.1-1.4-0.2-2.1-0.3c-0.3-0.1-0.7-0.2-1-0.2h0.2v-42.6h-0.6c1.4-0.4,2.8-0.6,4.2-0.7
								C-125.7,401-119.9,402.7-115.3,406.6z"/>
						</g>
					</g>
				</g>
				<g>
					<g>
						<g>
							<defs>
								<circle id="SVGID_101_" cx="-106.8" cy="420.9" r="25"/>
							</defs>
							<clipPath id="SVGID_102_">
								<use xlink:href="#SVGID_101_"  style="overflow:visible;"/>
							</clipPath>
							<path id="XMLID_489_" class="st50" d="M-115.6,407c9.1,7.7,10.2,21.4,2.5,30.5c-3.9,4.5-9.2,7.1-14.7,7.5
								c-1.4,0.1-2.8,0.1-4.1-0.1c-0.7-0.1-1.4-0.2-2.1-0.3c-0.3-0.1-0.7-0.2-1-0.2h0.1v-41.7h-0.4c1.3-0.4,2.7-0.6,4.1-0.7
								C-125.8,401.4-120.1,403.1-115.6,407z"/>
						</g>
					</g>
				</g>
				<g>
					<g>
						<g>
							<defs>
								<circle id="SVGID_103_" cx="-106.8" cy="420.9" r="25"/>
							</defs>
							<clipPath id="SVGID_104_">
								<use xlink:href="#SVGID_103_"  style="overflow:visible;"/>
							</clipPath>
							<path id="XMLID_488_" class="st51" d="M-122.6,415.2c4.5,3.9,5.1,10.7,1.2,15.2c-1.9,2.3-4.6,3.5-7.4,3.8
								c-1.4,0.1-2.8,0-4.1-0.5c-0.7-0.2-1.3-0.5-2-0.8c-0.3-0.2-0.6-0.4-0.9-0.6h0.7v-18h-0.4c0.3-0.2,0.6-0.4,0.9-0.5
								c1.3-0.6,2.6-1,4-1.1C-127.7,412.4-124.8,413.2-122.6,415.2z"/>
						</g>
					</g>
				</g>
			</g>
		</g>
		<g id="XMLID_483_">
			<circle id="XMLID_484_" class="st52" cx="-126" cy="403.5" r="3.9"/>
		</g>
		<g id="XMLID_481_">
			<circle id="XMLID_482_" class="st52" cx="-131.7" cy="421.4" r="5.9"/>
		</g>
		<g id="XMLID_479_">
			<circle id="XMLID_480_" class="st53" cx="-130" cy="432.4" r="5.2"/>
		</g>
		<g id="XMLID_477_">
			<circle id="XMLID_478_" class="st53" cx="-129.8" cy="411" r="4.5"/>
		</g>
		<g id="XMLID_475_">
			<circle id="XMLID_476_" class="st52" cx="-130.2" cy="431.8" r="3.1"/>
		</g>
		<g id="XMLID_473_">
			<circle id="XMLID_474_" class="st52" cx="-141.1" cy="421" r="2.3"/>
		</g>
		<g id="XMLID_471_">
			<circle id="XMLID_472_" class="st52" cx="-138.5" cy="435.6" r="2.3"/>
		</g>
		<g id="XMLID_469_">
			<circle id="XMLID_470_" class="st52" cx="-133.6" cy="399.3" r="2.3"/>
		</g>
		<g id="XMLID_467_">
			<circle id="XMLID_468_" class="st52" cx="-154.6" cy="409.5" r="1.4"/>
		</g>
		<g id="XMLID_465_">
			<circle id="XMLID_466_" class="st52" cx="-145.1" cy="413.9" r="1.4"/>
		</g>
		<g id="XMLID_463_">
			<circle id="XMLID_464_" class="st52" cx="-140" cy="406.8" r="1.3"/>
		</g>
		<g id="XMLID_461_">
			<circle id="XMLID_462_" class="st52" cx="-145.2" cy="428.2" r="1.3"/>
		</g>
		<g id="XMLID_459_">
			<circle id="XMLID_460_" class="st52" cx="-149.3" cy="419.8" r="1.3"/>
		</g>
		<g id="XMLID_457_">
			<circle id="XMLID_458_" class="st52" cx="-142.4" cy="400.6" r="1.3"/>
		</g>
		<g id="XMLID_455_">
			<circle id="XMLID_456_" class="st52" cx="-130.4" cy="410.7" r="3.1"/>
		</g>
		<g id="XMLID_453_">
			<circle id="XMLID_454_" class="st52" cx="-123.2" cy="438" r="3.9"/>
		</g>
		<g id="XMLID_450_">
			<path id="XMLID_451_" class="st53" d="M-106.2,431.4c-1.6,0-3.1-0.3-4.6-0.8c-1.4-0.5-2.8-1.4-4-2.5l2.2-2.6c1,0.9,2,1.5,3,2
				s2.2,0.7,3.5,0.7c1.1,0,2-0.2,2.7-0.7s1-1.1,1-1.9v-0.1c0-0.4-0.1-0.7-0.2-1s-0.4-0.6-0.7-0.8c-0.3-0.3-0.8-0.5-1.4-0.7
				s-1.4-0.4-2.3-0.6c-1.1-0.3-2.1-0.5-2.9-0.9c-0.9-0.3-1.6-0.7-2.1-1.2c-0.6-0.5-1-1-1.3-1.7s-0.5-1.5-0.5-2.4v-0.1
				c0-0.9,0.2-1.7,0.5-2.4s0.8-1.4,1.4-1.9s1.3-0.9,2.2-1.2c0.9-0.3,1.8-0.4,2.8-0.4c1.5,0,2.9,0.2,4.1,0.7c1.2,0.4,2.3,1.1,3.4,1.9
				l-1.9,2.7c-0.9-0.7-1.9-1.2-2.8-1.6c-0.9-0.4-1.8-0.5-2.8-0.5c-1.1,0-1.9,0.2-2.5,0.7s-0.9,1-0.9,1.7v0.1c0,0.4,0.1,0.7,0.2,1
				s0.4,0.6,0.8,0.8s0.9,0.5,1.5,0.7s1.4,0.4,2.4,0.7c1.1,0.3,2,0.6,2.9,0.9c0.8,0.3,1.5,0.7,2.1,1.2c0.5,0.5,1,1,1.3,1.7
				c0.3,0.6,0.4,1.4,0.4,2.2v0.1c0,1-0.2,1.8-0.5,2.6c-0.4,0.8-0.9,1.4-1.5,1.9s-1.4,0.9-2.3,1.2
				C-104.1,431.3-105.1,431.4-106.2,431.4z"/>
		</g>
	</g>
	<g id="XMLID_418_">
		<path id="XMLID_447_" class="st54" d="M-64.1,424c-0.1,1-0.5,1.7-1.2,2.3c-0.7,0.5-1.6,0.8-2.7,0.6c-1.1-0.1-2.6-1-3.2-2.1
			l0.3-0.4c0.9,1.3,1.6,1.8,2.8,2c0.8,0.1,1.5-0.1,2-0.5s0.8-0.9,0.8-1.5c0.1-0.6-0.1-1.1-0.4-1.5c-0.4-0.4-1-0.9-2-1.5
			c-0.9-0.5-1.5-0.9-2-1.3c-0.4-0.4-0.8-0.8-1-1.3s-0.3-1-0.2-1.6c0.1-0.8,0.4-1.5,1.1-2c0.6-0.5,1.4-0.7,2.3-0.6
			c0.5,0.1,0.9,0.2,1.3,0.4s0.8,0.6,1.2,1.1l-0.4,0.3c-0.1-0.2-0.2-0.3-0.3-0.4c-0.5-0.6-1.1-0.9-1.8-1c-0.7-0.1-1.2,0.1-1.6,0.4
			s-0.6,0.7-0.6,1.2c-0.1,0.5,0.1,1,0.5,1.4s1,0.9,2,1.5c0.9,0.5,1.6,1,2,1.3s0.8,0.7,1,1.2C-64.1,422.8-64,423.3-64.1,424z"/>
		<path id="XMLID_445_" class="st54" d="M-51.3,424.3l-3.5-3.4l-0.8,0.8v2.2v3.1h-1.7v-3.1v-6v-3h1.7v3v3.1l3.6-3.3l0,0l3.1-2.8h0.6
			l-2.2,2.1c-0.2,0.2-0.5,0.4-0.7,0.7l-0.3,0.3l-2,1.8l4.5,4.6c0.1,0.1,0.3,0.2,0.4,0.3l0,0c0,0,0,0,0,0.1l2.2,2.2h-2.4l-1.9-2l0,0
			C-50.9,424.7-51.1,424.5-51.3,424.3z"/>
		<path id="XMLID_443_" class="st54" d="M-38.4,414.8v3v6v3.1h-1.7v-3.1v-6v-3H-38.4z"/>
		<path id="XMLID_441_" class="st54" d="M-22.2,414.8v2.3v9.9h-0.3l-8.5-11.1v8.2v2.6h-0.4v-2.6v-6.3v-2.9h1.8l6.9,9.2V417v-2.1h0.5
			V414.8z"/>
		<path id="XMLID_439_" class="st54" d="M3.1,423.7V416l-4.8,10.9h-0.4L-6.9,416v7.1v3.8h-0.4V423v-5.3v-2.9h1.7l4.4,10l4.4-10h1.7
			v2.9v6v3.2H3.2L3.1,423.7L3.1,423.7z"/>
		<path id="XMLID_437_" class="st54" d="M15,426.5h3.7v0.4h-7v-3.1V423v-0.7v-4.4v-3h7.1v0.4h-3.7h-1.6v2.6v0.4v2.2h1.2H17v0.4h-2.2
			h-1.3v1.5v0.3v0.5v0.8v2.7H15V426.5z"/>
		<path id="XMLID_434_" class="st54" d="M24.7,414.8c2.8,0,3.3,0,3.3,0c1.8,0,3.2,0.3,4.2,0.8s1.7,1.3,2.2,2.2s0.7,2,0.7,3.2
			c0,0.9-0.1,1.7-0.4,2.4c-0.3,0.7-0.6,1.3-1.1,1.8s-1,0.9-1.6,1.1c-0.6,0.3-1.2,0.4-1.7,0.5s-1.3,0.1-2.3,0.1h-3.3L24.7,414.8
			L24.7,414.8z M28.3,426.5c1,0,1.9-0.2,2.6-0.4c0.7-0.3,1.2-0.8,1.7-1.7c0.5-0.8,0.7-1.9,0.7-3.2c0-1-0.1-1.9-0.4-2.7
			c-0.3-0.8-0.6-1.4-1.1-1.9s-1-0.8-1.6-1s-1.4-0.3-2.3-0.3c-0.5,0-1,0-1.4,0.1v11.2L28.3,426.5C28.3,426.6,28.3,426.5,28.3,426.5z"
			/>
		<path id="XMLID_432_" class="st54" d="M43.7,414.8v3v6v3.1H42v-3.1v-6v-3H43.7z"/>
		<path id="XMLID_430_" class="st54" d="M59.9,425.1c-1,1.2-2.3,1.8-3.9,1.8c-1.7,0-3.1-0.5-4.1-1.6c-1.1-1.1-1.6-2.5-1.6-4.2
			c0-1.2,0.2-2.2,0.7-3.3c0.5-1,1.2-1.8,2.1-2.3c0.9-0.5,1.8-0.7,2.9-0.7c0.9,0,1.7,0.2,2.4,0.5c0.7,0.4,1.2,0.7,1.6,1.2v0.1
			l-0.3,0.3c-0.2-0.3-0.4-0.5-0.7-0.7c-0.8-0.6-1.7-0.9-2.7-0.9c-1.2,0-2.2,0.5-2.9,1.5s-1.1,2.4-1.1,4.3c0,1.7,0.4,3.1,1.2,4
			s1.8,1.4,2.9,1.4c0.6,0,1.3-0.2,1.9-0.5c0.5-0.3,1-0.6,1.3-1.2L59.9,425.1z"/>
		<path id="XMLID_428_" class="st54" d="M67.8,414.8v3v6v3.1h-1.7v-3.1v-6v-3H67.8z"/>
		<path id="XMLID_426_" class="st54" d="M83.9,414.8v2.3v9.9h-0.3l-8.5-11.1v8.2v2.6h-0.4v-2.6v-6.3v-2.9h1.8l6.9,9.2V417v-2.1h0.5
			V414.8z"/>
		<path id="XMLID_423_" class="st54" d="M97.3,422.5h-4.5l-1.7,4.4h-0.6l5-12.1h0.4l5.1,12.1h-1.9c-0.6-1.6-0.9-2.2-0.9-2.2
			L97.3,422.5z M97.1,422.1L95,417l-2.1,5.1H97.1z"/>
		<path id="XMLID_421_" class="st54" d="M115.6,426.5v0.4h-8.4v-3.1v-6v-3h1.7v11.7L115.6,426.5L115.6,426.5z"/>
		<path id="XMLID_419_" class="st54" d="M126.9,424c-0.1,1-0.5,1.7-1.2,2.3c-0.7,0.5-1.6,0.8-2.7,0.6c-1.1-0.1-2.6-1-3.2-2.1
			l0.3-0.4c0.9,1.3,1.6,1.8,2.8,2c0.8,0.1,1.5-0.1,2-0.5s0.8-0.9,0.8-1.5c0.1-0.6-0.1-1.1-0.4-1.5c-0.4-0.4-1-0.9-2-1.5
			c-0.9-0.5-1.5-0.9-2-1.3c-0.4-0.4-0.8-0.8-1-1.3s-0.3-1-0.2-1.6c0.1-0.8,0.4-1.5,1.1-2c0.6-0.5,1.4-0.7,2.3-0.6
			c0.5,0.1,0.9,0.2,1.3,0.4c0.4,0.2,0.8,0.6,1.2,1.1l-0.4,0.3c-0.1-0.2-0.2-0.3-0.3-0.4c-0.5-0.6-1.1-0.9-1.8-1
			c-0.7-0.1-1.2,0.1-1.6,0.4c-0.4,0.3-0.6,0.7-0.6,1.2c-0.1,0.5,0.1,1,0.5,1.4c0.4,0.4,1,0.9,2,1.5c0.9,0.5,1.6,1,2,1.3
			c0.4,0.3,0.8,0.7,1,1.2C126.9,422.8,126.9,423.3,126.9,424z"/>
	</g>
</g>
</svg>
