<?xml version="1.0" encoding="utf-8"?>
<!-- Generator: Adobe Illustrator 16.0.0, SVG Export Plug-In . SVG Version: 6.00 Build 0)  -->
<!DOCTYPE svg PUBLIC "-//W3C//DTD SVG 1.1//EN" "http://www.w3.org/Graphics/SVG/1.1/DTD/svg11.dtd">
<svg version="1.1" id="Layer_1" xmlns="http://www.w3.org/2000/svg" xmlns:xlink="http://www.w3.org/1999/xlink" x="0px" y="0px"
	 width="300px" height="55px" viewBox="0 0 300 55" enable-background="new 0 0 300 55" xml:space="preserve">
<g id="XMLID_1282_">
	<linearGradient id="XMLID_2_" gradientUnits="userSpaceOnUse" x1="90.9551" y1="25.624" x2="37.9897" y2="16.8834">
		<stop  offset="0" style="stop-color:#EE2A28"/>
		<stop  offset="0.3265" style="stop-color:#6454A3"/>
		<stop  offset="0.6378" style="stop-color:#C34699"/>
		<stop  offset="1" style="stop-color:#EAB2D1"/>
	</linearGradient>
	<circle id="XMLID_1283_" fill="url(#XMLID_2_)" cx="54.593" cy="19.623" r="2.765"/>
	<linearGradient id="XMLID_3_" gradientUnits="userSpaceOnUse" x1="136.4775" y1="44.2949" x2="18.1579" y2="24.7692">
		<stop  offset="0" style="stop-color:#EE2A28"/>
		<stop  offset="0.3265" style="stop-color:#6454A3"/>
		<stop  offset="0.6378" style="stop-color:#C34699"/>
		<stop  offset="1" style="stop-color:#EAB2D1"/>
	</linearGradient>
	<path id="XMLID_1284_" fill="url(#XMLID_3_)" d="M56.913,30.35c0,2.728-2.211,4.941-4.945,4.941c-2.73,0-4.941-2.214-4.941-4.941
		s2.211-4.943,4.941-4.943C54.701,25.407,56.913,27.622,56.913,30.35z"/>
	<linearGradient id="XMLID_4_" gradientUnits="userSpaceOnUse" x1="82.9033" y1="31.9111" x2="45.4488" y2="25.7302">
		<stop  offset="0" style="stop-color:#EE2A28"/>
		<stop  offset="0.3265" style="stop-color:#6454A3"/>
		<stop  offset="0.6378" style="stop-color:#C34699"/>
		<stop  offset="1" style="stop-color:#EAB2D1"/>
	</linearGradient>
	<circle id="XMLID_1285_" fill="url(#XMLID_4_)" cx="61.644" cy="28.403" r="2.933"/>
	<linearGradient id="XMLID_5_" gradientUnits="userSpaceOnUse" x1="93.2734" y1="46.332" x2="36.3858" y2="36.9441">
		<stop  offset="0" style="stop-color:#EE2A28"/>
		<stop  offset="0.3265" style="stop-color:#6454A3"/>
		<stop  offset="0.6378" style="stop-color:#C34699"/>
		<stop  offset="1" style="stop-color:#EAB2D1"/>
	</linearGradient>
	<path id="XMLID_1286_" fill="url(#XMLID_5_)" d="M61.389,40.514c0,1.859-1.502,3.366-3.365,3.366c-1.86,0-3.365-1.507-3.365-3.366
		c0-1.856,1.505-3.364,3.365-3.364C59.887,37.149,61.389,38.657,61.389,40.514z"/>
	<linearGradient id="XMLID_6_" gradientUnits="userSpaceOnUse" x1="112.3525" y1="38.8184" x2="25.958" y2="24.5611">
		<stop  offset="0" style="stop-color:#EE2A28"/>
		<stop  offset="0.3265" style="stop-color:#6454A3"/>
		<stop  offset="0.6378" style="stop-color:#C34699"/>
		<stop  offset="1" style="stop-color:#EAB2D1"/>
	</linearGradient>
	<circle id="XMLID_1287_" fill="url(#XMLID_6_)" cx="42.04" cy="27.215" r="2.708"/>
	<linearGradient id="XMLID_7_" gradientUnits="userSpaceOnUse" x1="111.4707" y1="48.8662" x2="25.0852" y2="34.6104">
		<stop  offset="0" style="stop-color:#EE2A28"/>
		<stop  offset="0.3265" style="stop-color:#6454A3"/>
		<stop  offset="0.6378" style="stop-color:#C34699"/>
		<stop  offset="1" style="stop-color:#EAB2D1"/>
	</linearGradient>
	<path id="XMLID_1288_" fill="url(#XMLID_7_)" d="M50.472,38.316c0,1.619-1.314,2.933-2.933,2.933c-1.615,0-2.932-1.313-2.932-2.933
		s1.317-2.933,2.932-2.933C49.158,35.384,50.472,36.697,50.472,38.316z"/>
	<linearGradient id="XMLID_8_" gradientUnits="userSpaceOnUse" x1="113.04" y1="34.5801" x2="26.6596" y2="20.3251">
		<stop  offset="0" style="stop-color:#EE2A28"/>
		<stop  offset="0.3265" style="stop-color:#6454A3"/>
		<stop  offset="0.6378" style="stop-color:#C34699"/>
		<stop  offset="1" style="stop-color:#EAB2D1"/>
	</linearGradient>
	<path id="XMLID_1289_" fill="url(#XMLID_8_)" d="M39.406,22.106c0,1.078-0.876,1.954-1.958,1.954c-1.076,0-1.953-0.875-1.953-1.954
		c0-1.081,0.877-1.956,1.953-1.956C38.53,20.15,39.406,21.026,39.406,22.106z"/>
	<linearGradient id="XMLID_9_" gradientUnits="userSpaceOnUse" x1="111.0879" y1="49.0303" x2="24.7083" y2="34.7754">
		<stop  offset="0" style="stop-color:#EE2A28"/>
		<stop  offset="0.3265" style="stop-color:#6454A3"/>
		<stop  offset="0.6378" style="stop-color:#C34699"/>
		<stop  offset="1" style="stop-color:#EAB2D1"/>
	</linearGradient>
	<path id="XMLID_1290_" fill="url(#XMLID_9_)" d="M41.405,37.21c0,1.078-0.876,1.952-1.955,1.952c-1.08,0-1.957-0.874-1.957-1.952
		c0-1.081,0.877-1.956,1.957-1.956C40.529,35.254,41.405,36.129,41.405,37.21z"/>
	<linearGradient id="XMLID_10_" gradientUnits="userSpaceOnUse" x1="112.1094" y1="40.5049" x2="25.6783" y2="26.2416">
		<stop  offset="0" style="stop-color:#EE2A28"/>
		<stop  offset="0.3265" style="stop-color:#6454A3"/>
		<stop  offset="0.6378" style="stop-color:#C34699"/>
		<stop  offset="1" style="stop-color:#EAB2D1"/>
	</linearGradient>
	<path id="XMLID_1291_" fill="url(#XMLID_10_)" d="M33.39,27.292c0,0.749-0.603,1.352-1.353,1.352c-0.746,0-1.353-0.604-1.353-1.352
		c0-0.747,0.606-1.354,1.353-1.354C32.787,25.938,33.39,26.544,33.39,27.292z"/>
	<linearGradient id="XMLID_11_" gradientUnits="userSpaceOnUse" x1="111.2803" y1="45.1895" x2="24.9086" y2="30.9359">
		<stop  offset="0" style="stop-color:#EE2A28"/>
		<stop  offset="0.3265" style="stop-color:#6454A3"/>
		<stop  offset="0.6378" style="stop-color:#C34699"/>
		<stop  offset="1" style="stop-color:#EAB2D1"/>
	</linearGradient>
	<circle id="XMLID_1292_" fill="url(#XMLID_11_)" cx="36.548" cy="32.857" r="1.353"/>
	<linearGradient id="XMLID_12_" gradientUnits="userSpaceOnUse" x1="121.4712" y1="34.4668" x2="35.0684" y2="20.2081">
		<stop  offset="0" style="stop-color:#EE2A28"/>
		<stop  offset="0.3265" style="stop-color:#6454A3"/>
		<stop  offset="0.6378" style="stop-color:#C34699"/>
		<stop  offset="1" style="stop-color:#EAB2D1"/>
	</linearGradient>
	<circle id="XMLID_1293_" fill="url(#XMLID_12_)" cx="46.711" cy="22.131" r="1.353"/>
	<linearGradient id="XMLID_13_" gradientUnits="userSpaceOnUse" x1="111.7788" y1="42.0166" x2="25.4287" y2="27.7666">
		<stop  offset="0" style="stop-color:#EE2A28"/>
		<stop  offset="0.3265" style="stop-color:#6454A3"/>
		<stop  offset="0.6378" style="stop-color:#C34699"/>
		<stop  offset="1" style="stop-color:#EAB2D1"/>
	</linearGradient>
	<circle id="XMLID_1294_" fill="url(#XMLID_13_)" cx="22.639" cy="27.307" r="0.887"/>
	<linearGradient id="XMLID_14_" gradientUnits="userSpaceOnUse" x1="111.269" y1="45.9688" x2="24.7775" y2="31.6954">
		<stop  offset="0" style="stop-color:#EE2A28"/>
		<stop  offset="0.3265" style="stop-color:#6454A3"/>
		<stop  offset="0.6378" style="stop-color:#C34699"/>
		<stop  offset="1" style="stop-color:#EAB2D1"/>
	</linearGradient>
	<path id="XMLID_1295_" fill="url(#XMLID_14_)" d="M29.021,32.292c0,0.348-0.283,0.629-0.628,0.629c-0.343,0-0.63-0.281-0.63-0.629
		c0-0.349,0.288-0.629,0.63-0.629C28.737,31.663,29.021,31.943,29.021,32.292z"/>
	<linearGradient id="XMLID_15_" gradientUnits="userSpaceOnUse" x1="111.3711" y1="44.9189" x2="24.9552" y2="30.6581">
		<stop  offset="0" style="stop-color:#EE2A28"/>
		<stop  offset="0.3265" style="stop-color:#6454A3"/>
		<stop  offset="0.6378" style="stop-color:#C34699"/>
		<stop  offset="1" style="stop-color:#EAB2D1"/>
	</linearGradient>
	<path id="XMLID_1296_" fill="url(#XMLID_15_)" d="M17.479,29.323c0,0.346-0.281,0.627-0.628,0.627c-0.344,0-0.63-0.281-0.63-0.627
		c0-0.351,0.286-0.631,0.63-0.631C17.199,28.692,17.479,28.973,17.479,29.323z"/>
	<linearGradient id="XMLID_16_" gradientUnits="userSpaceOnUse" x1="110.73" y1="48.7852" x2="24.3148" y2="34.5244">
		<stop  offset="0" style="stop-color:#EE2A28"/>
		<stop  offset="0.3265" style="stop-color:#6454A3"/>
		<stop  offset="0.6378" style="stop-color:#C34699"/>
		<stop  offset="1" style="stop-color:#EAB2D1"/>
	</linearGradient>
	<circle id="XMLID_1297_" fill="url(#XMLID_16_)" cx="23.765" cy="34.434" r="0.438"/>
	<linearGradient id="XMLID_17_" gradientUnits="userSpaceOnUse" x1="111.499" y1="43.5908" x2="25.1614" y2="29.3429">
		<stop  offset="0" style="stop-color:#EE2A28"/>
		<stop  offset="0.3265" style="stop-color:#6454A3"/>
		<stop  offset="0.6378" style="stop-color:#C34699"/>
		<stop  offset="1" style="stop-color:#EAB2D1"/>
	</linearGradient>
	<circle id="XMLID_1298_" fill="url(#XMLID_17_)" cx="10.459" cy="26.917" r="0.437"/>
	<linearGradient id="XMLID_18_" gradientUnits="userSpaceOnUse" x1="112.6211" y1="37.3145" x2="26.2067" y2="23.0539">
		<stop  offset="0" style="stop-color:#EE2A28"/>
		<stop  offset="0.3265" style="stop-color:#6454A3"/>
		<stop  offset="0.6378" style="stop-color:#C34699"/>
		<stop  offset="1" style="stop-color:#EAB2D1"/>
	</linearGradient>
	<circle id="XMLID_1299_" fill="url(#XMLID_18_)" cx="28.655" cy="23.458" r="1.126"/>
	<linearGradient id="XMLID_19_" gradientUnits="userSpaceOnUse" x1="110.4902" y1="50.3604" x2="24.0522" y2="36.0959">
		<stop  offset="0" style="stop-color:#EE2A28"/>
		<stop  offset="0.3265" style="stop-color:#6454A3"/>
		<stop  offset="0.6378" style="stop-color:#C34699"/>
		<stop  offset="1" style="stop-color:#EAB2D1"/>
	</linearGradient>
	<circle id="XMLID_1300_" fill="url(#XMLID_19_)" cx="30.385" cy="37.141" r="1.129"/>
</g>
<linearGradient id="XMLID_20_" gradientUnits="userSpaceOnUse" x1="34.1592" y1="19.5459" x2="151.9698" y2="55.2966">
	<stop  offset="0" style="stop-color:#EE2A28"/>
	<stop  offset="0.3265" style="stop-color:#6454A3"/>
	<stop  offset="0.6378" style="stop-color:#C34699"/>
	<stop  offset="1" style="stop-color:#EAB2D1"/>
</linearGradient>
<path id="XMLID_1301_" fill="url(#XMLID_20_)" d="M63.05,3.682c1.282,1.169,2.387,2.532,3.322,4.001
	c0.476,0.731,0.876,1.51,1.245,2.303c0.35,0.802,0.651,1.63,0.851,2.487c0.115,0.435,0.184,0.85,0.269,1.281
	c0.071,0.434,0.142,0.869,0.184,1.306c0.092,0.873,0.116,1.759,0.05,2.64c-0.034,0.439-0.087,0.878-0.141,1.304
	c-0.048,0.424-0.097,0.842-0.009,1.193c0.025,0.087,0.042,0.176,0.086,0.256l0.056,0.124l0.077,0.141l0.316,0.563
	c0.213,0.373,0.427,0.745,0.653,1.108c0.897,1.458,1.931,2.835,3.148,4.016c0.601,0.572,1.305,1.138,1.894,1.826
	c0.291,0.349,0.585,0.73,0.733,1.244c0.04,0.125,0.048,0.269,0.061,0.403c-0.012,0.139-0.006,0.284-0.053,0.414l-0.057,0.197
	l-0.087,0.179c-0.054,0.125-0.132,0.22-0.202,0.325c-0.295,0.396-0.666,0.689-0.999,0.962c-0.174,0.137-0.331,0.271-0.48,0.404
	c-0.149,0.139-0.29,0.283-0.417,0.43c-0.248,0.304-0.385,0.603-0.357,0.916c0.033,0.325,0.212,0.698,0.411,1.067
	c0.203,0.376,0.42,0.765,0.606,1.178c0.18,0.413,0.368,0.856,0.359,1.404c-0.005,0.271-0.092,0.567-0.262,0.803
	s-0.403,0.392-0.58,0.509c-0.212,0.136-0.423,0.245-0.673,0.323c-0.123,0.04-0.255,0.067-0.396,0.079
	c-0.069,0.006-0.142,0.005-0.219-0.001c-0.085-0.013-0.135-0.012-0.269-0.063c-0.177-0.069-0.265-0.269-0.195-0.445
	c0.069-0.178,0.268-0.265,0.445-0.196l0.028,0.014c0.335,0.165,0.566,0.355,0.795,0.595c0.221,0.236,0.405,0.504,0.543,0.795
	c0.128,0.293,0.257,0.569,0.238,0.982c-0.034,0.405-0.206,0.693-0.369,0.955c-0.338,0.509-0.696,0.924-0.812,1.385
	c-0.065,0.226-0.041,0.455,0.016,0.684c0.039,0.111,0.073,0.229,0.136,0.368c0.056,0.131,0.109,0.266,0.163,0.405
	c0.212,0.549,0.394,1.11,0.512,1.695c0.122,0.581,0.179,1.19,0.101,1.805c-0.073,0.609-0.316,1.231-0.752,1.697
	c-0.117,0.105-0.217,0.233-0.348,0.319l-0.392,0.259c-0.134,0.073-0.28,0.124-0.42,0.186l-0.211,0.09l-0.219,0.058l-0.438,0.109
	c-0.164,0.037-0.291,0.044-0.438,0.068c-0.279,0.046-0.583,0.056-0.876,0.078c-0.585,0.026-1.163,0.02-1.74-0.002
	c-1.152-0.039-2.295-0.134-3.438-0.188c-1.143-0.054-2.288-0.071-3.428,0.012c-0.57,0.039-1.137,0.112-1.702,0.201
	c-0.28,0.057-0.563,0.104-0.842,0.166l-0.832,0.219l0.82-0.261c0.277-0.077,0.558-0.141,0.837-0.211
	c0.563-0.122,1.132-0.214,1.705-0.276c1.146-0.127,2.3-0.154,3.45-0.145c1.151,0.008,2.299,0.059,3.44,0.076
	c0.571,0.009,1.141,0,1.701-0.037c0.278-0.029,0.549-0.039,0.835-0.095c0.136-0.024,0.298-0.041,0.412-0.073l0.395-0.109
	l0.196-0.056l0.183-0.084c0.119-0.057,0.247-0.103,0.361-0.169l0.321-0.223c0.109-0.073,0.184-0.181,0.277-0.27
	c0.341-0.382,0.527-0.88,0.58-1.406c0.055-0.526-0.006-1.076-0.132-1.612c-0.125-0.537-0.3-1.07-0.505-1.588
	c-0.049-0.129-0.104-0.26-0.161-0.393c-0.056-0.123-0.11-0.277-0.165-0.438c-0.088-0.32-0.118-0.683-0.028-1.015
	c0.171-0.667,0.603-1.139,0.884-1.587c0.143-0.219,0.248-0.455,0.258-0.625c0.028-0.163-0.07-0.443-0.179-0.664
	c-0.11-0.229-0.255-0.437-0.429-0.619c-0.164-0.178-0.392-0.345-0.572-0.433l0.277-0.628c-0.033-0.014,0.024,0.005,0.047,0.003
	c0.032,0.002,0.067,0.003,0.106-0.001c0.075-0.007,0.157-0.022,0.24-0.05c0.164-0.052,0.341-0.144,0.491-0.243
	c0.182-0.122,0.311-0.219,0.396-0.338c0.083-0.119,0.123-0.256,0.127-0.417c0.008-0.326-0.133-0.715-0.305-1.085
	c-0.174-0.376-0.381-0.743-0.593-1.128c-0.207-0.391-0.44-0.804-0.507-1.346c-0.026-0.272,0.021-0.563,0.126-0.81
	c0.1-0.255,0.254-0.452,0.403-0.645c0.616-0.736,1.437-1.153,1.886-1.752c0.221-0.301,0.326-0.594,0.23-0.916
	c-0.087-0.324-0.32-0.66-0.581-0.973c-0.536-0.635-1.186-1.166-1.835-1.791c-1.263-1.244-2.314-2.67-3.22-4.169
	c-0.227-0.375-0.447-0.753-0.654-1.138l-0.307-0.578l-0.075-0.146l-0.075-0.174c-0.056-0.114-0.081-0.239-0.111-0.361
	c-0.105-0.5-0.025-0.961,0.03-1.392c0.065-0.432,0.125-0.853,0.168-1.276c0.083-0.846,0.082-1.699,0.011-2.551
	c-0.03-0.427-0.09-0.849-0.148-1.271c-0.073-0.42-0.137-0.863-0.235-1.269l-0.148-0.623c-0.05-0.208-0.123-0.409-0.184-0.614
	c-0.116-0.412-0.278-0.81-0.426-1.212c-0.332-0.791-0.695-1.572-1.138-2.313c-0.435-0.744-0.914-1.463-1.436-2.152
	C64.216,4.963,63.663,4.295,63.05,3.682z"/>
<text transform="matrix(1 0 0 1 83.522 38.2676)" fill="#B6469A" font-family="'GreatVibes-Regular'" font-size="21.1398">Our Brand</text>
</svg>
